<?xml version="1.0" encoding="UTF-8"?>
<svg xmlns="http://www.w3.org/2000/svg" xmlns:xlink="http://www.w3.org/1999/xlink" viewBox="0 0 476.38 428.72">
  <defs>
    <clipPath id="clippath">
      <path d="M172.22,362.18l-10.84,6.26c-.81.47-2.13.47-2.94,0l-13.23-7.54c-.81-.47-.81-1.23,0-1.7l10.84-6.26c.81-.47,2.13-.47,2.94,0,3.59,2.07,9.64,5.47,13.23,7.54.81.47.81,1.23,0,1.7Z" style="fill: #27debf; stroke-width: 0px;"/>
    </clipPath>
  </defs>
  <g id="Floor">
    <ellipse id="Floor-2" data-name="Floor" cx="238.19" cy="291.2" rx="238.19" ry="137.52" style="fill: #f5f5f5; stroke-width: 0px;"/>
  </g>
  <g id="Shadows">
    <path id="Shadow" d="M409.9,315.61c-.04-.09-.09-.18-.16-.26-.04-.06-.08-.1-.13-.17-.04-.06-.09-.12-.16-.19-.05-.05-.11-.11-.18-.17-.18-.16-.39-.31-.64-.46l-222.69-128.55c-1.98-1.14-5.2-1.14-7.18,0l-115.87,66.72c-.16.09-.3.18-.43.27-.05.04-.1.07-.15.11-.26.22-.46.44-.6.67-.04.05-.07.11-.1.18-.05.09-.09.19-.11.28-.02.07-.04.15-.05.22-.03.12-.04.24-.04.36,0,.08.01.17.02.25.02.09.04.19.07.28.03.09.07.19.11.27.23.46.65.88,1.28,1.25l222.69,128.55c.61.35,1.36.59,2.14.73.47.08.96.11,1.45.12.49,0,.98-.04,1.44-.11.17-.02.32-.05.47-.09.46-.1.89-.25,1.3-.44.14-.06.26-.13.38-.21l115.87-66.72c1.36-.79,1.78-1.91,1.27-2.91Z" style="fill: #e0e0e0; stroke-width: 0px;"/>
    <ellipse id="Shadow-2" data-name="Shadow" cx="395.69" cy="252.6" rx="49.53" ry="28.6" style="fill: #e0e0e0; stroke-width: 0px;"/>
    <path id="Shadow-3" data-name="Shadow" d="M135.18,400.73c-2.13,0-4.18-.51-5.77-1.43l-99.19-57.27-.09-.06c-1.93-1.15-3.06-2.96-3.05-4.93.02-1.98,1.2-3.79,3.24-4.97l65.44-37.78c1.58-.91,3.62-1.42,5.75-1.42s4.18.5,5.77,1.42l99.13,57.22c2.05,1.19,3.22,3,3.23,4.99,0,1.89-1.04,3.63-2.88,4.81-.13.09-.26.18-.4.26l-49.52,28.57-15.89,9.17c-1.59.92-3.63,1.42-5.76,1.42h0Z" style="fill: #e0e0e0; stroke-width: 0px;"/>
  </g>
  <g id="Device">
    <g id="Device-2" data-name="Device">
      <g id="Mobile">
        <path d="M400.24,300.87c-.04-.09-.09-.18-.16-.26-.04-.06-.08-.1-.13-.17-.04-.06-.09-.12-.16-.19-.05-.05-.11-.11-.18-.17-.18-.16-.39-.31-.64-.46l-216.63-125.07c-1.98-1.14-5.2-1.14-7.18,0l-106.21,61.32c-.16.09-.3.18-.43.27-.05.04-.1.07-.15.11-.26.22-.46.44-.6.67-.04.05-.07.11-.1.18-.05.09-.09.19-.11.28-.02.07-.04.15-.05.22-.03.12-.04.24-.04.36,0,.08.01.17.02.25.02.09.04.19.07.28.03.09.07.19.11.27.23.46.65.88,1.28,1.25l216.63,125.07c.61.35,1.36.59,2.14.73.47.08.96.11,1.45.12.49,0,.98-.04,1.44-.11.17-.02.32-.05.47-.09.46-.1.89-.25,1.3-.44.14-.06.26-.13.38-.21l106.21-61.32c1.36-.79,1.78-1.91,1.27-2.91ZM376.91,296.43l-6.8,3.92-90.49,52.21c-.24.13-.48.26-.73.36-1.49.61-3.17.61-4.66,0-.25-.1-.5-.23-.74-.36l-171.81-99.19-8.31-4.79c-.32-.19-.58-.39-.78-.61-.86-.94-.59-2.15.78-2.95l97.24-56.14c1.23-.71,2.51-1.21,3.78-1.05.31.04.61.12.92.25.16.06.32.13.48.23l181.11,104.57c1.37.79,1.37,2.77,0,3.56Z" style="fill: #455a64; stroke-width: 0px;"/>
        <path d="M68.54,236.16c-1.79,1.27-3.17,3.82-3.18,5.95v4.74c0,2.3,1.6,5.08,3.59,6.23l216.61,125.06c.75.44,1.67.7,2.64.8.32.04.63.06.96.06,0,0,.01,0,.01,0v-13.05s0,0,0,0c-.49,0-.98-.04-1.45-.12-.78-.13-1.53-.38-2.14-.73l-216.63-125.07c-1.82-1.05-1.97-2.72-.42-3.87Z" style="fill: #37474f; stroke-width: 0px;"/>
        <path d="M342.87,326.34c-3.48-2-9.34-2-12.82,0-.89.52-1.56,1.12-1.92,1.75-1.15,1.99.95,3.5,1.92,4.06,3.48,2,9.34,2,12.82,0,.88-.52,1.55-1.12,1.92-1.75,1.15-1.99-.96-3.5-1.92-4.06Z" style="fill: #27debf; stroke-width: 0px;"/>
        <g>
          <path d="M130.75,210.85c.97-.56.97-1.47,0-2.03-.97-.56-2.54-.56-3.51,0-.97.56-.97,1.47,0,2.03.97.56,2.54.56,3.51,0Z" style="fill: #263238; stroke-width: 0px;"/>
          <g>
            <path d="M125.23,220.45c.86-.5.86-1.3,0-1.8s-2.25-.5-3.11,0c-.86.5-.86,1.3,0,1.8s2.25.5,3.11,0Z" style="fill: #263238; stroke-width: 0px;"/>
            <path d="M130.51,217.48l17.44-10.07c.96-.55,1-1.42.11-1.94-.9-.52-2.4-.49-3.35.06l-17.44,10.07c-.96.55-1,1.42-.11,1.94.9.52,2.4.49,3.35-.06Z" style="fill: #263238; stroke-width: 0px;"/>
          </g>
        </g>
        <path d="M399.45,299.95c1.49,1.16,1.33,2.79-.47,3.82l-106.21,61.32c-.99.57-2.29.85-3.59.85v13.05c1.31,0,2.59-.29,3.58-.87l106.21-61.3c1.98-1.14,3.59-3.92,3.59-6.22v-4.76c0-2.1-1.35-4.61-3.11-5.9Z" style="fill: #263238; stroke-width: 0px;"/>
        <g>
          <g>
            <path d="M119.62,272.94c1.03.59,1.86,1.97,1.86,3.08,0,.54-.19.91-.51,1.08-.22.12-1.07.63-1.3.76-.34.19-.81.15-1.34-.15l-24.15-13.94c-1.03-.59-1.86-1.97-1.86-3.08,0-.51.18-.87.47-1.06.23-.14,1.11-.65,1.34-.78.34-.19.81-.15,1.34.15l24.15,13.94Z" style="fill: #455a64; stroke-width: 0px;"/>
            <path d="M118.32,273.68l-24.15-13.94c-1.03-.59-1.86-.17-1.86.94s.83,2.49,1.86,3.08l24.15,13.94c1.03.59,1.86.17,1.86-.94,0-1.11-.83-2.49-1.86-3.08Z" style="fill: #263238; stroke-width: 0px;"/>
          </g>
          <g>
            <path d="M87.29,254.27c1.03.59,1.86,1.97,1.86,3.08,0,.54-.19.91-.51,1.08-.22.12-1.07.63-1.3.76-.34.19-.81.15-1.34-.15l-11.39-6.57c-1.03-.59-1.86-1.97-1.86-3.08,0-.51.18-.87.47-1.06.23-.14,1.11-.65,1.34-.78.34-.19.81-.15,1.34.15l11.39,6.57Z" style="fill: #455a64; stroke-width: 0px;"/>
            <path d="M86,255.02l-11.39-6.57c-1.03-.59-1.86-.17-1.86.94,0,1.11.83,2.49,1.86,3.08l11.39,6.57c1.03.59,1.86.17,1.86-.94s-.83-2.49-1.86-3.08Z" style="fill: #263238; stroke-width: 0px;"/>
          </g>
        </g>
      </g>
      <g id="Window">
        <path d="M376.91,296.38l-6.8,3.92-90.49,52.21c-.24.13-.48.26-.73.36-1.49.61-3.17.61-4.66,0-.25-.1-.5-.23-.74-.36l-171.81-99.19-8.31-4.79c-.32-.19-.58-.39-.78-.61-.86-.94-.59-2.15.78-2.95l97.24-56.14c1.23-.71,2.51-1.21,3.78-1.05.31.04.61.12.92.25.16.06.32.13.48.23l181.11,104.57c1.37.79,1.37,2.77,0,3.56Z" style="fill: #27debf; stroke-width: 0px;"/>
        <path d="M376.91,296.38l-6.8,3.92-90.49,52.21c-.24.13-.48.26-.73.36-1.49.61-3.17.61-4.66,0-.25-.1-.5-.23-.74-.36l-171.81-99.19-8.31-4.79c-.32-.19-.58-.39-.78-.61-.86-.94-.59-2.15.78-2.95l97.24-56.14c1.23-.71,2.51-1.21,3.78-1.05.31.04.61.12.92.25.16.06.32.13.48.23l181.11,104.57c1.37.79,1.37,2.77,0,3.56Z" style="fill: #fff; opacity: .8; stroke-width: 0px;"/>
        <g>
          <g>
            <path d="M113.92,241.18s-.09-.02-.14-.05l-.48-.28-1.15.66c-.06.04-.13.04-.2,0l-.17-.1s-.07-.04-.08-.06c-.01-.02-.03-.04-.04-.07l-.49-1.69s-.01-.05,0-.07c0-.02.03-.03.06-.06l.16-.09s.09-.04.14-.04c.05,0,.1.02.15.05l1.67.96.25-.15s.09-.04.14-.04c.04,0,.09.02.14.05l.11.07c.05.03.08.06.08.08,0,.02-.02.05-.07.08l-.25.15.48.28c.05.03.08.06.08.08,0,.02-.02.05-.07.08l-.19.11s-.09.04-.14.04ZM112.97,240.58l-1.19-.69.36,1.17.83-.48Z" style="fill: #455a64; stroke-width: 0px;"/>
            <path d="M115,240.22c-.48-.02-.96-.17-1.44-.44-.47-.27-.73-.55-.76-.83-.03-.28.16-.54.57-.77.16-.1.34-.17.52-.23.18-.06.36-.1.52-.11.04,0,.07,0,.09.01.01,0,.03.02.04.04l.1.18s0,.04,0,.05c0,0-.03,0-.07.02-.27.03-.52.12-.75.25-.28.16-.4.34-.38.53.02.2.22.4.58.61.37.21.72.33,1.05.34.33.02.63-.05.9-.21.1-.06.18-.12.26-.18.07-.06.12-.12.15-.17l-.78-.45-.48.28s-.09.04-.14.04c-.04,0-.09-.02-.14-.05l-.11-.06c-.05-.03-.08-.06-.08-.08,0-.02.02-.05.07-.08l.77-.44c.05-.03.11-.04.16-.04.05,0,.11.02.17.06l1.11.64s.07.04.08.06c.01.02.02.04,0,.06-.06.22-.28.44-.66.66-.41.24-.86.35-1.34.33Z" style="fill: #455a64; stroke-width: 0px;"/>
          </g>
          <g>
            <path d="M124.51,234.52c.37.21.37.56,0,.77-.37.21-.97.21-1.33,0-.37-.21-.37-.56,0-.77.37-.21.97-.21,1.33,0Z" style="fill: #455a64; stroke-width: 0px;"/>
            <path d="M122.09,233.89c-.67.39-.88.94-.62,1.43.05.1.22.16.4.15h0c.23-.02.38-.15.31-.27-.19-.35-.04-.74.43-1.01.47-.27,1.15-.36,1.75-.25.22.04.44-.05.47-.18h0c.02-.1-.09-.2-.26-.23-.85-.15-1.81-.03-2.48.36Z" style="fill: #455a64; stroke-width: 0px;"/>
            <path d="M121.02,233.28c-1,.58-1.36,1.39-1.07,2.13.04.11.22.19.41.17h0c.22-.02.36-.14.31-.26-.24-.61.05-1.27.87-1.74s1.97-.64,3.02-.5c.21.03.42-.06.45-.18h0c.02-.11-.11-.21-.3-.24-1.29-.17-2.69.04-3.7.62Z" style="fill: #455a64; stroke-width: 0px;"/>
          </g>
          <g>
            <path d="M140.69,223.76s-.08-.02-.11-.04c-.03-.02-.04-.05-.03-.07l.2-.99s.01-.05.02-.07c0-.02.03-.04.06-.06l.34-.2s.07-.03.12-.03c.05,0,.09,0,.12.03l2.85,1.65s.05.04.05.07c0,.03-.02.05-.05.07l-.36.21s-.07.03-.12.03c-.05,0-.09,0-.12-.03l-2.18-1.26-.14.64s-.03.05-.06.06c-.03.02-.08.02-.13.02l-.47-.03Z" style="fill: #455a64; stroke-width: 0px;"/>
            <path d="M142.93,222.47s-.08-.02-.11-.04c-.03-.02-.04-.04-.03-.07l.2-.99s.01-.05.02-.07c0-.02.03-.04.06-.06l.34-.2s.07-.03.12-.03c.05,0,.09,0,.12.03l2.85,1.65s.05.04.05.07c0,.03-.02.05-.05.07l-.36.21s-.07.03-.12.03c-.05,0-.09,0-.12-.03l-2.18-1.26-.14.64s-.03.05-.06.06c-.04.02-.08.02-.13.02l-.47-.03Z" style="fill: #455a64; stroke-width: 0px;"/>
            <path d="M145.73,220.71s.07-.03.12-.03c.05,0,.09,0,.12.03l.43.25s.05.04.05.07c0,.03-.02.05-.05.07l-.41.24s-.07.03-.12.03c-.05,0-.09,0-.12-.03l-.43-.25s-.05-.04-.05-.07c0-.03.02-.05.05-.07l.41-.24ZM147.28,221.6s.07-.03.12-.03c.05,0,.09,0,.12.03l.43.25s.05.04.05.07c0,.03-.02.05-.05.07l-.41.24s-.07.03-.12.03c-.05,0-.09,0-.12-.03l-.43-.25s-.05-.04-.05-.07c0-.03.02-.05.05-.07l.41-.24Z" style="fill: #455a64; stroke-width: 0px;"/>
            <path d="M150.31,220.62s-.07.03-.12.03c-.05,0-.09,0-.12-.03l-.53-.31-1.37.79s-.07.03-.12.03c-.05,0-.09,0-.12-.03l-.31-.18s-.07-.05-.08-.08c-.01-.03-.02-.06-.03-.1l-.34-1.75c-.01-.08,0-.13.07-.17l.34-.19s.07-.03.12-.03c.05,0,.09,0,.12.03l1.77,1.02.38-.22s.07-.03.12-.03c.05,0,.09,0,.12.03l.31.18s.05.04.05.07c0,.03-.02.05-.05.07l-.38.22.53.31s.05.04.05.07c0,.03-.02.05-.05.07l-.36.21ZM148.98,220l-.94-.55.19.98.76-.44Z" style="fill: #455a64; stroke-width: 0px;"/>
            <path d="M149.11,217.88s-.05-.04-.05-.07c0-.03.02-.05.05-.07l1.66-.96s.07-.03.12-.03c.05,0,.09,0,.12.03l.31.18s.05.04.05.07c0,.03-.02.05-.05.07l-1.24.72.52.35c.05-.06.11-.12.18-.17.07-.05.13-.09.18-.12.16-.09.34-.17.52-.23.19-.06.37-.09.56-.1.19,0,.38,0,.56.05.19.04.36.11.53.2.19.11.32.22.39.33.07.11.1.22.08.33-.02.11-.08.22-.18.32-.1.1-.23.2-.39.29-.2.12-.4.2-.59.26-.19.06-.38.09-.55.1-.18,0-.34,0-.49-.04-.15-.03-.29-.08-.41-.14-.04-.02-.06-.04-.05-.07,0-.03.02-.05.05-.07l.36-.21s.06-.03.11-.03c.04,0,.08,0,.13.02.09.03.17.05.25.05.08,0,.16,0,.23-.02.08-.01.15-.04.22-.07.07-.03.14-.07.21-.1.17-.1.26-.2.27-.31.01-.11-.06-.21-.22-.31-.13-.08-.3-.11-.49-.1-.19,0-.37.06-.54.16-.09.05-.15.1-.19.13-.04.04-.06.07-.08.1-.01.03-.03.05-.04.08-.01.02-.04.05-.08.07l-.41.23s-.07.03-.12.03c-.05,0-.09,0-.12-.03l-1.36-.94Z" style="fill: #455a64; stroke-width: 0px;"/>
          </g>
          <g>
            <polygon points="101.58 248.71 100.66 248.18 101.88 247.47 102.8 248 101.58 248.71" style="fill: #455a64; stroke-width: 0px;"/>
            <polygon points="103.42 247.65 101.58 246.59 102.8 245.88 104.64 246.94 103.42 247.65" style="fill: #455a64; stroke-width: 0px;"/>
            <polygon points="105.26 246.59 102.5 244.99 103.72 244.29 106.48 245.88 105.26 246.59" style="fill: #455a64; stroke-width: 0px;"/>
            <polygon points="107.1 245.52 103.42 243.4 104.64 242.69 108.32 244.82 107.1 245.52" style="fill: #455a64; stroke-width: 0px;"/>
          </g>
          <g>
            <path d="M190.28,194.05c-.3-.02-.56.01-.72.11l-4.59,2.64c-.3.17-.22.48.18.71l1.67.97c.22.13.51.21.81.24.13.01.25,0,.36,0,.15-.02.27-.05.36-.11l4.59-2.64c.3-.17.22-.48-.18-.71l-1.67-.97c-.22-.13-.51-.21-.81-.24ZM187.58,198.55c-.11,0-.24-.05-.35-.11l-1.67-.97c-.29-.17-.35-.42-.13-.54l4.59-2.64c.05-.03.12-.05.19-.06.04,0,.08,0,.12,0,.11,0,.24.05.35.11l1.67.97c.29.17.35.42.13.54l-4.59,2.64c-.08.05-.19.07-.3.06Z" style="fill: #455a64; stroke-width: 0px;"/>
            <g>
              <path d="M186.59,196.59l1.98,1.14-.72.41c-.06.04-.2.05-.24.02l-1.47-.85c-.21-.12-.26-.31-.1-.4l.56-.32Z" style="fill: #455a64; stroke-width: 0px;"/>
              <polygon points="186.93 196.4 187.79 195.9 189.77 197.04 188.9 197.54 186.93 196.4" style="fill: #455a64; stroke-width: 0px;"/>
              <polygon points="188.13 195.71 188.99 195.21 190.97 196.36 190.11 196.85 188.13 195.71" style="fill: #455a64; stroke-width: 0px;"/>
              <path d="M190.31,194.6l1.43.82c.26.15.21.37-.15.57l-.29.17-1.98-1.14.69-.4c.08-.05.25-.06.3-.03Z" style="fill: #455a64; stroke-width: 0px;"/>
            </g>
            <path d="M191.27,194.19c.13-.07.51.03.85.22l.31.18c.34.2.52.42.4.5l-.22.14-1.57-.92s.1-.06.23-.13Z" style="fill: #455a64; stroke-width: 0px;"/>
          </g>
          <polygon points="178.59 201.77 182.15 198.68 184.03 201.35 181.57 200.68 178.59 201.77" style="fill: #455a64; stroke-width: 0px;"/>
        </g>
      </g>
      <g id="Button">
        <g>
          <path d="M254.34,331.72v.87c0,1.4.98,3.1,2.19,3.8l17.16,9.9c1.21.7,3.17.7,4.38,0l84.57-48.86c1.21-.7,2.19-2.4,2.19-3.8v-.87c0-1.4-.98-3.1-2.19-3.8l-17.16-9.9c-1.21-.7-3.17-.7-4.38,0l-84.57,48.86c-1.21.7-2.19,2.4-2.19,3.8Z" style="fill: #27debf; stroke-width: 0px;"/>
          <path d="M362.93,289.17c.91.7.81,1.7-.29,2.34l-84.58,48.86c-.6.35-1.4.52-2.19.53v5.92c.79,0,1.58-.17,2.2-.52l84.56-48.85c1.21-.7,2.2-2.4,2.19-3.8v-.87c0-1.28-.82-2.82-1.9-3.6Z" style="opacity: .15; stroke-width: 0px;"/>
          <path d="M256.2,328.16c-1.05.79-1.86,2.3-1.85,3.55v.88c0,1.39.98,3.09,2.19,3.79l17.15,9.9c.61.35,1.4.53,2.19.52v-5.92c-.79,0-1.59-.18-2.19-.52l-17.16-9.9c-1.08-.63-1.19-1.6-.33-2.3Z" style="opacity: .3; stroke-width: 0px;"/>
        </g>
        <g>
          <g>
            <path d="M281.59,321.92c.14-.08.29-.12.44-.12.15,0,.28.02.39.05l9,2.52c.1.02.17.05.2.07.06.04.1.08.1.13s-.03.1-.1.13l-1.34.77c-.14.08-.27.12-.39.12-.12,0-.22-.01-.29-.04l-1.18-.34-2.82,1.63.58.68s.06.1.06.16c0,.07-.07.14-.21.23l-1.34.77c-.06.04-.14.06-.23.06-.09,0-.17-.02-.23-.06-.03-.02-.07-.06-.12-.12l-4.37-5.2c-.05-.06-.08-.14-.08-.22,0-.09.06-.17.21-.25l1.72-.99ZM284.51,325.59l1.72-.99-3.41-.97,1.69,1.97Z" style="fill: #455a64; stroke-width: 0px;"/>
            <path d="M288.38,318c.49-.28,1.01-.5,1.56-.65.55-.15,1.1-.23,1.66-.25.56-.02,1.1.03,1.63.14.53.11,1.02.29,1.47.53.16.08.29.16.42.23.12.07.24.14.36.21.11.07.23.13.35.2.12.07.25.15.38.23.42.27.73.55.92.85.2.3.29.61.26.93-.03.32-.16.63-.42.94-.25.31-.62.61-1.11.89l-2.87,1.65c-.08.04-.17.07-.29.07s-.21-.02-.29-.07l-6.86-3.96c-.08-.04-.12-.1-.12-.16,0-.07.04-.12.12-.16l2.81-1.62ZM292.69,318.88c-.86-.45-1.74-.4-2.66.13l-1.08.62,4.03,2.33,1.13-.66c.89-.51.95-1.02.17-1.51-.14-.09-.28-.17-.41-.25-.13-.07-.26-.15-.38-.22-.12-.07-.25-.14-.38-.22-.13-.07-.27-.15-.42-.23Z" style="fill: #455a64; stroke-width: 0px;"/>
            <path d="M296.05,313.57c.49-.28,1.01-.5,1.56-.65.55-.15,1.1-.23,1.66-.25.56-.02,1.1.03,1.63.14.53.11,1.02.29,1.47.53.16.08.3.16.42.23.12.07.24.14.35.21.11.07.23.13.35.2.12.07.25.15.38.23.42.27.72.55.92.85.2.3.28.61.26.93-.02.32-.16.63-.42.94-.25.31-.62.61-1.11.89l-2.87,1.65c-.08.04-.17.07-.29.07s-.21-.02-.29-.07l-6.86-3.96c-.08-.04-.12-.1-.12-.16,0-.07.04-.12.12-.16l2.81-1.62ZM300.36,314.45c-.86-.45-1.74-.4-2.66.13l-1.08.62,4.03,2.33,1.14-.66c.89-.51.95-1.02.17-1.51-.14-.09-.28-.17-.41-.25-.13-.07-.26-.15-.38-.22-.12-.07-.25-.14-.38-.22-.13-.07-.27-.15-.42-.23Z" style="fill: #455a64; stroke-width: 0px;"/>
            <path d="M308.08,306.63c.08-.05.17-.07.29-.07.11,0,.21.02.29.07l1.13.65c.08.05.12.1.12.17s-.04.12-.12.17l-1.87,1.08,5.44,3.14c.08.04.12.1.12.16s-.04.12-.12.17l-1.39.8c-.08.05-.17.07-.29.07s-.21-.02-.29-.07l-5.44-3.14-1.87,1.08c-.08.04-.17.07-.29.07s-.21-.02-.29-.07l-1.13-.65c-.08-.05-.12-.1-.12-.17,0-.06.04-.12.12-.16l5.7-3.29Z" style="fill: #455a64; stroke-width: 0px;"/>
            <path d="M311.72,307.73c-.37-.24-.66-.51-.86-.8-.2-.29-.29-.59-.27-.9.02-.31.15-.62.4-.94.25-.32.63-.63,1.16-.93.52-.3,1.05-.52,1.61-.66.55-.15,1.1-.22,1.64-.24.54-.01,1.06.04,1.56.15.5.11.96.28,1.38.5.32.17.64.35.98.54.33.19.64.38.91.55.37.24.66.51.86.8.2.29.29.59.27.9-.02.31-.15.63-.41.95-.26.32-.64.63-1.16.92-.52.3-1.06.53-1.61.67-.55.15-1.09.22-1.63.23-.54.01-1.06-.04-1.57-.16-.5-.11-.96-.28-1.38-.5-.31-.16-.62-.33-.96-.53-.33-.19-.64-.38-.93-.56ZM318.21,306.1c-.12-.08-.25-.16-.4-.26-.15-.09-.3-.19-.47-.28-.16-.09-.32-.18-.48-.27-.16-.08-.3-.16-.43-.22-.19-.09-.39-.17-.6-.22-.21-.05-.42-.08-.64-.08-.22,0-.44.03-.67.09-.23.06-.45.15-.67.28-.22.13-.38.26-.48.39-.1.13-.15.26-.15.39s.04.25.13.37c.09.12.21.24.38.35.11.08.23.16.38.25.15.09.31.18.47.28.16.09.32.18.48.27.16.09.31.16.45.23.38.19.8.29,1.25.3.45.01.89-.11,1.33-.37.44-.25.65-.51.63-.77-.02-.26-.19-.5-.51-.72Z" style="fill: #455a64; stroke-width: 0px;"/>
            <path d="M323.59,300.93c.08.06.21.13.37.23.16.1.33.19.5.29.17.1.35.2.51.29.17.09.3.17.4.21.18.09.37.16.56.22.2.06.41.09.63.09.22,0,.44-.02.67-.08.23-.05.47-.15.71-.29.24-.14.41-.27.51-.39.1-.12.16-.24.18-.34.02-.1,0-.2-.04-.29-.05-.09-.1-.16-.15-.23-.08-.09-.12-.15-.12-.2s.05-.11.17-.18l1.39-.8c.06-.04.14-.05.23-.05s.17.02.23.05c.35.21.6.46.75.74.15.28.19.58.13.88-.06.31-.23.61-.49.92-.26.31-.63.6-1.09.87-.51.29-1.04.51-1.59.66-.55.14-1.1.22-1.65.23-.54.01-1.07-.04-1.57-.15-.5-.11-.96-.28-1.37-.49-.31-.16-.62-.33-.96-.53-.33-.19-.64-.38-.93-.56-.37-.23-.66-.49-.85-.79-.2-.29-.28-.59-.27-.91.02-.31.15-.63.4-.95.25-.32.63-.63,1.14-.92.47-.27.97-.48,1.51-.63.54-.15,1.07-.24,1.6-.28.53-.04,1.04-.01,1.53.07.49.09.92.23,1.28.44.06.04.1.08.09.13,0,.05-.03.1-.09.13l-1.39.8c-.12.07-.22.1-.31.1-.09,0-.21-.03-.36-.07-.11-.03-.25-.06-.4-.09-.15-.03-.32-.04-.5-.02-.18.01-.38.04-.59.1-.21.06-.44.16-.68.29-.24.14-.41.27-.5.41-.1.13-.14.26-.13.39,0,.13.06.25.16.36.1.11.22.22.37.33Z" style="fill: #455a64; stroke-width: 0px;"/>
            <path d="M330.31,293.79c.14-.08.29-.12.44-.12.15,0,.28.02.39.05l9,2.52c.1.02.17.05.2.07.06.04.1.08.09.13,0,.05-.03.1-.09.13l-1.34.77c-.14.08-.27.12-.39.12s-.22-.01-.29-.04l-1.18-.34-2.82,1.63.58.68s.06.1.06.17-.07.15-.21.23l-1.34.77c-.06.04-.14.05-.23.05s-.17-.02-.23-.05c-.04-.02-.08-.06-.12-.12l-4.37-5.2c-.05-.06-.08-.14-.08-.22,0-.09.07-.17.21-.25l1.72-.99ZM333.23,297.46l1.72-.99-3.41-.97,1.69,1.97Z" style="fill: #455a64; stroke-width: 0px;"/>
            <path d="M337.17,289.83c.47-.27.93-.48,1.4-.64.47-.15.93-.25,1.39-.29.46-.03.91,0,1.35.1.45.1.87.27,1.28.5.53.31.86.62.99.95.13.33.09.66-.13,1l3.84.7c.06.01.11.03.15.05.06.04.09.08.09.13s-.03.1-.09.14l-1.44.83c-.14.08-.27.12-.4.12-.12,0-.24-.01-.33-.03l-3.45-.63-.98.56,2.27,1.31c.08.05.12.1.12.17s-.04.12-.12.16l-1.39.8c-.08.04-.17.07-.29.07s-.21-.02-.29-.07l-6.86-3.96c-.08-.04-.12-.1-.12-.17,0-.06.04-.12.12-.16l2.88-1.66ZM339.18,292.38l1.2-.69c.3-.17.49-.35.57-.52.08-.18-.02-.35-.32-.52-.3-.17-.6-.23-.91-.19-.31.05-.61.16-.91.33l-1.2.69,1.57.91Z" style="fill: #455a64; stroke-width: 0px;"/>
            <path d="M346.77,284.29c.08-.05.17-.07.29-.07s.21.02.29.07l1.13.65c.08.04.12.1.12.16,0,.07-.04.12-.12.17l-1.87,1.08,5.44,3.14c.08.05.12.1.12.17,0,.07-.04.12-.12.16l-1.39.8c-.08.04-.17.07-.29.07s-.21-.02-.29-.07l-5.44-3.14-1.87,1.08c-.08.04-.17.07-.29.07s-.21-.02-.29-.07l-1.12-.65c-.08-.05-.12-.1-.12-.17,0-.06.04-.12.12-.16l5.7-3.29Z" style="fill: #455a64; stroke-width: 0px;"/>
          </g>
          <path d="M268.33,327.7c-2.68,1.55-2.68,4.06,0,5.61,2.68,1.55,7.03,1.55,9.71,0,2.68-1.55,2.68-4.06,0-5.61-2.68-1.55-7.03-1.55-9.71,0ZM276.3,329.53l-1.8,1.04,1.8,1.04c.33.19.33.5,0,.69-.33.19-.87.19-1.2,0l-1.8-1.04-1.8,1.04c-.33.19-.87.19-1.2,0s-.33-.5,0-.69l1.8-1.04-1.8-1.04c-.33-.19-.33-.5,0-.69.33-.19.87-.19,1.2,0l1.8,1.04,1.8-1.04c.33-.19.87-.19,1.2,0,.33.19.33.5,0,.69Z" style="fill: #455a64; stroke-width: 0px;"/>
        </g>
      </g>
    </g>
  </g>
  <g id="Cart">
    <g id="Cart-2" data-name="Cart">
      <g>
        <g>
          <path d="M286.58,262.3c.03-4.29-2.95-9.53-6.66-11.7-1.94-1.14-3.69-1.19-4.93-.38h0l-4.56,2.56,9.55,16.46,4.52-2.56h0c1.27-.69,2.07-2.2,2.08-4.39Z" style="fill: #37474f; stroke-width: 0px;"/>
          <path d="M275.19,253.28c3.7,2.17,6.68,7.41,6.66,11.7-.03,4.29-3.05,6.01-6.76,3.84-3.7-2.17-6.68-7.41-6.66-11.7.03-4.29,3.05-6.01,6.76-3.84Z" style="fill: #455a64; stroke-width: 0px;"/>
          <path d="M272.87,259.73c.01-1.68,1.04-2.44,2.29-1.71,1.25.73,2.26,2.69,2.25,4.37-.01,1.68-1.04,2.44-2.29,1.71-1.25-.73-2.26-2.69-2.25-4.37Z" style="fill: #263238; stroke-width: 0px;"/>
          <path d="M281.85,264.98c0-1.45-.33-3-.91-4.5l-11.57-6.71c-.58.81-.92,1.94-.93,3.36,0,.05,0,.11,0,.16l13.4,7.78s0-.05,0-.08Z" style="opacity: .15; stroke-width: 0px;"/>
        </g>
        <path d="M238.7,298.89c-2.54.14-5.12-.27-7.12-1.28l-63.04-36.32c-3.81-1.92-8.09-6.9-8.35-11.61l-1.94-44.91,3.51-.2,1.94,44.91c.18,3.21,3.54,7.22,6.42,8.67l63.04,36.32c2.92,1.47,7.86,1.18,10.58-.61l42.04-24.22c1.01-.66,1.58-1.45,1.54-2.11-.04-.66-.67-1.34-1.73-1.87l-67.49-39.18c-3.8-1.91-8.06-6.9-8.33-11.62l-.94-24.91,3.51-.2.94,24.91c.18,3.21,3.53,7.23,6.39,8.67l67.49,39.18c2.25,1.13,3.56,2.84,3.67,4.82.11,1.96-1.03,3.87-3.12,5.25l-42.04,24.22c-1.88,1.24-4.41,1.95-6.97,2.09Z" style="fill: #455a64; stroke-width: 0px;"/>
        <g>
          <path d="M227.36,297.88c.03-4.29-2.95-9.53-6.66-11.7-1.94-1.14-3.69-1.19-4.93-.38h0l-4.56,2.56,9.55,16.46,4.52-2.56h0c1.27-.69,2.07-2.2,2.08-4.39Z" style="fill: #37474f; stroke-width: 0px;"/>
          <path d="M215.97,288.86c3.7,2.17,6.68,7.41,6.66,11.7-.03,4.29-3.05,6.01-6.76,3.84-3.7-2.17-6.68-7.41-6.66-11.7.03-4.29,3.05-6.01,6.76-3.84Z" style="fill: #455a64; stroke-width: 0px;"/>
          <path d="M213.65,295.31c.01-1.68,1.04-2.44,2.29-1.71,1.25.73,2.26,2.69,2.25,4.37-.01,1.68-1.04,2.44-2.29,1.71-1.25-.73-2.26-2.69-2.25-4.37Z" style="fill: #263238; stroke-width: 0px;"/>
        </g>
        <g>
          <path d="M180.8,271.03c.04-4.29-2.94-9.54-6.63-11.71-1.94-1.14-3.69-1.2-4.93-.39h0l-4.56,2.55,9.52,16.48,4.52-2.55h0c1.27-.68,2.07-2.19,2.09-4.38Z" style="fill: #37474f; stroke-width: 0px;"/>
          <path d="M169.43,262c3.7,2.18,6.67,7.42,6.63,11.71-.03,4.29-3.06,6.01-6.76,3.83-3.7-2.18-6.67-7.42-6.63-11.71.04-4.29,3.06-6.01,6.76-3.83Z" style="fill: #455a64; stroke-width: 0px;"/>
          <path d="M167.1,268.43c.01-1.68,1.04-2.44,2.29-1.7,1.25.74,2.26,2.69,2.24,4.37-.01,1.68-1.04,2.44-2.29,1.7-1.25-.74-2.26-2.69-2.24-4.37Z" style="fill: #263238; stroke-width: 0px;"/>
        </g>
      </g>
      <path d="M150.76,150.35c-1.34-4.35.68-9.96,4.49-12.46l41.91-23.69c3.81-2.5,7.98-.76,9.32,3.59l2.91,9.43-2.88,1.68-3.11-9.53c-.74-2.31-3-3.1-5.02-1.76l-40.81,23.08c-2.44,1.62-3.76,5.24-2.94,8.04l2.46,9.05-3.43,2-2.91-9.43Z" style="fill: #455a64; stroke-width: 0px;"/>
      <g>
        <g>
          <polygon points="215.56 195.79 159.26 228.3 241.54 275.8 297.84 243.29 215.56 195.79" style="fill: #27debf; stroke-width: 0px;"/>
          <polygon points="215.56 195.79 159.26 228.3 241.54 275.8 297.84 243.29 215.56 195.79" style="opacity: .5; stroke-width: 0px;"/>
        </g>
        <g>
          <polygon points="153.67 159.78 209.39 127.22 215.56 195.79 159.26 228.3 153.67 159.78" style="fill: #27debf; stroke-width: 0px;"/>
          <polygon points="153.67 159.78 209.39 127.22 215.56 195.79 159.26 228.3 153.67 159.78" style="opacity: .35; stroke-width: 0px;"/>
        </g>
        <g>
          <path d="M209.39,127.22l6.17,68.57,82.28,47.49,12.99-57.51-101.44-58.56ZM238.16,193.15c-2.27.87-4.91-.49-5.9-3.06l-13.6-35.29c-.99-2.56.05-5.35,2.32-6.22,2.27-.87,4.91.49,5.9,3.06l13.6,35.29c.99,2.56-.05,5.35-2.32,6.22ZM263.85,205.23c-2.27.87-4.91-.49-5.9-3.06l-13.6-35.29c-.99-2.56.05-5.35,2.32-6.22,2.27-.87,4.91.49,5.9,3.06l13.6,35.29c.99,2.56-.05,5.35-2.32,6.22ZM289.54,217.32c-2.27.87-4.91-.49-5.9-3.06l-13.6-35.29c-.99-2.56.05-5.35,2.32-6.22,2.27-.87,4.91.49,5.9,3.06l13.6,35.29c.99,2.56-.05,5.35-2.32,6.22Z" style="fill: #27debf; stroke-width: 0px;"/>
          <path d="M209.39,127.22l6.17,68.57,82.28,47.49,12.99-57.51-101.44-58.56ZM238.16,193.15c-2.27.87-4.91-.49-5.9-3.06l-13.6-35.29c-.99-2.56.05-5.35,2.32-6.22,2.27-.87,4.91.49,5.9,3.06l13.6,35.29c.99,2.56-.05,5.35-2.32,6.22ZM263.85,205.23c-2.27.87-4.91-.49-5.9-3.06l-13.6-35.29c-.99-2.56.05-5.35,2.32-6.22,2.27-.87,4.91.49,5.9,3.06l13.6,35.29c.99,2.56-.05,5.35-2.32,6.22ZM289.54,217.32c-2.27.87-4.91-.49-5.9-3.06l-13.6-35.29c-.99-2.56.05-5.35,2.32-6.22,2.27-.87,4.91.49,5.9,3.06l13.6,35.29c.99,2.56-.05,5.35-2.32,6.22Z" style="opacity: .23; stroke-width: 0px;"/>
        </g>
        <g>
          <path d="M153.67,159.78l5.59,68.52,82.28,47.51,12.99-57.51-100.86-58.52ZM186.15,227.23c-2.27.87-4.91-.49-5.9-3.05l-13.6-35.29c-.99-2.56.05-5.35,2.32-6.22,2.27-.87,4.91.49,5.9,3.06l13.6,35.29c.99,2.56-.05,5.35-2.32,6.22ZM211.84,239.31c-2.27.87-4.91-.49-5.9-3.05l-13.6-35.29c-.99-2.56.05-5.35,2.32-6.22,2.27-.87,4.91.49,5.9,3.06l13.6,35.29c.99,2.56-.05,5.35-2.32,6.22ZM237.53,251.4c-2.27.87-4.91-.49-5.9-3.06l-13.6-35.29c-.99-2.56.05-5.35,2.32-6.22,2.27-.87,4.91.49,5.9,3.06l13.6,35.29c.99,2.56-.05,5.35-2.32,6.22Z" style="fill: #27debf; stroke-width: 0px;"/>
          <g style="opacity: .15;">
            <path d="M153.67,159.78l5.59,68.52,82.28,47.51,12.99-57.51-100.86-58.52ZM186.15,227.23c-2.27.87-4.91-.49-5.9-3.05l-13.6-35.29c-.99-2.56.05-5.35,2.32-6.22,2.27-.87,4.91.49,5.9,3.06l13.6,35.29c.99,2.56-.05,5.35-2.32,6.22ZM211.84,239.31c-2.27.87-4.91-.49-5.9-3.05l-13.6-35.29c-.99-2.56.05-5.35,2.32-6.22,2.27-.87,4.91.49,5.9,3.06l13.6,35.29c.99,2.56-.05,5.35-2.32,6.22ZM237.53,251.4c-2.27.87-4.91-.49-5.9-3.06l-13.6-35.29c-.99-2.56.05-5.35,2.32-6.22,2.27-.87,4.91.49,5.9,3.06l13.6,35.29c.99,2.56-.05,5.35-2.32,6.22Z" style="stroke-width: 0px;"/>
          </g>
          <g>
            <polygon points="254.53 218.3 310.83 185.79 297.84 243.3 241.54 275.8 254.53 218.3" style="fill: #27debf; stroke-width: 0px;"/>
            <polygon points="254.53 218.3 310.83 185.79 297.84 243.3 241.54 275.8 254.53 218.3" style="opacity: .4; stroke-width: 0px;"/>
          </g>
        </g>
      </g>
    </g>
  </g>
  <g id="Arrow">
    <g id="Arrow-2" data-name="Arrow">
      <polygon points="274.81 94.15 268.31 97.96 268.33 78.27 264.39 76 246.55 86.3 246.52 110.59 236.12 116.48 259.4 131.58 278.75 96.42 274.81 94.15" style="fill: #37474f; stroke-width: 0px;"/>
      <polygon points="250.49 88.57 250.46 112.86 240.06 118.76 259.4 131.58 278.75 96.42 268.3 102.56 268.33 78.27 250.49 88.57" style="fill: #455a64; stroke-width: 0px;"/>
      <polygon points="246.55 86.3 250.49 88.57 250.46 112.86 246.52 110.59 246.55 86.3" style="fill: #263238; stroke-width: 0px;"/>
    </g>
  </g>
  <g id="Bag">
    <g id="Bag-2" data-name="Bag">
      <polygon points="165.95 109.44 222.33 76.89 217.63 9.07 165.95 38.91 165.95 109.44" style="fill: #27debf; stroke-width: 0px;"/>
      <polygon points="165.95 109.44 222.33 76.89 217.63 9.07 165.95 38.91 165.95 109.44" style="fill: #fff; opacity: .6; stroke-width: 0px;"/>
      <polygon points="165.95 38.91 165.95 33.48 151.85 30.77 203.53 .93 208.23 9.07 217.63 9.07 165.95 38.91" style="fill: #27debf; stroke-width: 0px;"/>
      <polygon points="165.95 38.91 165.95 33.48 151.85 30.77 203.53 .93 208.23 9.07 217.63 9.07 165.95 38.91" style="fill: #fff; opacity: .3; stroke-width: 0px;"/>
      <polygon points="203.53 .93 203.53 17.21 208.23 14.5 208.23 9.07 203.53 .93" style="fill: #27debf; stroke-width: 0px;"/>
      <polygon points="203.53 .93 203.53 17.21 208.23 14.5 208.23 9.07 203.53 .93" style="opacity: .1; stroke-width: 0px;"/>
      <polygon points="217.63 9.07 208.23 9.07 208.23 14.5 217.63 9.07" style="fill: #27debf; stroke-width: 0px;"/>
      <polygon points="217.63 9.07 208.23 9.07 208.23 14.5 217.63 9.07" style="opacity: .2; stroke-width: 0px;"/>
      <polygon points="151.85 30.77 147.15 98.59 165.95 109.44 165.95 38.91 165.95 33.48 151.85 30.77" style="fill: #27debf; stroke-width: 0px;"/>
      <polygon points="151.85 30.77 147.15 98.59 165.95 109.44 165.95 38.91 165.95 33.48 151.85 30.77" style="opacity: .1; stroke-width: 0px;"/>
      <polygon points="165.95 33.48 156.55 104.01 165.95 109.44 165.95 33.48" style="fill: #27debf; stroke-width: 0px;"/>
      <polygon points="165.95 33.48 156.55 104.01 165.95 109.44 165.95 33.48" style="opacity: .2; stroke-width: 0px;"/>
      <polygon points="165.95 109.44 157.33 98.13 147.15 98.59 165.95 109.44" style="fill: #27debf; stroke-width: 0px;"/>
      <g>
        <path d="M167.09,30.05c0,.92.65,1.3,1.45.84.8-.46,1.45-1.58,1.45-2.51s-.65-1.3-1.45-.84c-.8.46-1.45,1.58-1.45,2.51Z" style="fill: #37474f; stroke-width: 0px;"/>
        <path d="M186.32,19.2c0,.92.65,1.3,1.45.84.8-.46,1.45-1.58,1.45-2.51s-.65-1.3-1.45-.84c-.8.46-1.45,1.58-1.45,2.51Z" style="fill: #37474f; stroke-width: 0px;"/>
        <path d="M168.53,29c-.27,0-.49-.22-.49-.49v-11.85c0-5.16,4.42-11.92,9.86-15.06,3.03-1.75,5.9-2.09,7.89-.94,1.58.91,2.45,2.7,2.45,5.02v11.98c0,.27-.22.49-.49.49s-.49-.22-.49-.49V5.69c0-1.99-.68-3.43-1.97-4.18-1.68-.97-4.2-.63-6.92.94-5.17,2.98-9.38,9.36-9.38,14.21v11.85c0,.27-.22.49-.49.49Z" style="fill: #37474f; stroke-width: 0px;"/>
      </g>
      <g>
        <path d="M181.4,38.19c0,.92.65,1.3,1.45.84.8-.46,1.45-1.58,1.45-2.51s-.65-1.3-1.45-.84c-.8.46-1.45,1.58-1.45,2.51Z" style="fill: #455a64; stroke-width: 0px;"/>
        <path d="M200.64,27.34c0,.92.65,1.3,1.45.84.8-.46,1.45-1.58,1.45-2.51s-.65-1.3-1.45-.84c-.8.46-1.45,1.58-1.45,2.51Z" style="fill: #455a64; stroke-width: 0px;"/>
        <path d="M182.85,37.14c-.27,0-.49-.22-.49-.49v-11.85c0-5.16,4.42-11.92,9.86-15.06,3.03-1.75,5.9-2.09,7.89-.94,1.58.91,2.45,2.7,2.45,5.02v11.98c0,.27-.22.49-.49.49s-.49-.22-.49-.49v-11.98c0-1.99-.68-3.43-1.97-4.18-1.68-.97-4.2-.63-6.92.94-5.17,2.99-9.38,9.36-9.38,14.21v11.85c0,.27-.22.49-.49.49Z" style="fill: #455a64; stroke-width: 0px;"/>
      </g>
    </g>
  </g>
  <g id="Credit_Card" data-name="Credit Card">
    <g id="Card">
      <path d="M139.5,395.86l65.44-37.78c1.29-.75,1.76-1.72,1.77-2.71.01-1,.02-4.64.02-4.64-.02.03-1.75,2.5-1.78,2.52l-49.57,28.6-15.89,9.17c-2.38,1.38-6.23,1.38-8.61,0l-99.1-57.21s-1.68-1.96-1.72-1.98c0,0-.09,3.42-.05,4.56.02.83.69,1.63,1.76,2.26l99.11,57.2c2.37,1.39,6.23,1.38,8.61,0Z" style="fill: #27debf; stroke-width: 0px;"/>
      <path d="M139.5,395.86l65.44-37.78c1.29-.75,1.76-1.72,1.77-2.71.01-1,.02-4.64.02-4.64-.02.03-1.75,2.5-1.78,2.52l-49.57,28.6-15.89,9.17c-2.38,1.38-6.23,1.38-8.61,0l-99.1-57.21s-1.68-1.96-1.72-1.98c0,0-.09,3.42-.05,4.56.02.83.69,1.63,1.76,2.26l99.11,57.2c2.37,1.39,6.23,1.38,8.61,0Z" style="opacity: .15; stroke-width: 0px;"/>
      <path d="M186.08,364.14h0v4.83l18.86-10.89c1.29-.75,1.76-1.72,1.77-2.7.01-1,.02-4.64.02-4.64-.02.03-1.75,2.5-1.78,2.52l-18.87,10.88Z" style="fill: #37474f; stroke-width: 0px;"/>
      <path d="M204.95,353.26s.07-.04.09-.07c2.28-1.35,2.24-3.55-.09-4.9l-99.12-57.22c-2.38-1.36-6.23-1.38-8.61,0l-65.44,37.78c-2.35,1.36-2.37,3.55-.09,4.91.03.02.06.04.09.06l99.1,57.21c2.38,1.38,6.23,1.38,8.61,0l15.89-9.17,49.57-28.6Z" style="fill: #27debf; stroke-width: 0px;"/>
      <path d="M186.08,364.14l18.87-10.88s.07-.04.09-.07c2.28-1.35,2.24-3.55-.09-4.9l-99.12-57.22c-2.38-1.36-6.23-1.38-8.61,0l-18.86,10.89,107.72,62.19Z" style="fill: #455a64; stroke-width: 0px;"/>
      <path d="M30.06,331.84s-.09,3.42-.05,4.56c.02.83.69,1.63,1.76,2.26l99.11,57.2c1.48.87,3.54,1.19,5.46.97v-4.84c-1.92.22-3.98-.11-5.47-.97l-99.1-57.21s-1.68-1.96-1.72-1.98Z" style="opacity: .15; stroke-width: 0px;"/>
      <g>
        <path d="M62.14,325.36l-1.92-1.11c-.09-.05-.13-.11-.14-.17,0-.07.02-.12.1-.17s.17-.06.29-.06c.12,0,.22.03.31.08l.64.37,2.77-1.6c.15-.09.22-.2.21-.33-.02-.13-.11-.25-.28-.35,0,0,0,0-.01,0-.09-.05-.14-.11-.15-.18,0-.07.03-.12.1-.16s.17-.06.29-.06.22.03.31.08h0s0,0,0,0c.35.2.55.44.58.71.03.27-.1.49-.41.67l-2.76,1.6.64.37c.09.05.14.11.14.18,0,.07-.03.12-.1.17-.08.04-.17.06-.29.06-.12,0-.22-.03-.3-.08Z" style="fill: #fff; stroke-width: 0px;"/>
        <path d="M67.95,326.8l-1.28-.74c-.18-.1-.38-.16-.61-.17-.23,0-.42.03-.58.12l-.41.24s-.05.05-.05.08c0,.03.03.06.07.09l2.72,1.57c.09.05.13.11.14.18,0,.07-.03.12-.1.17-.08.04-.17.06-.29.06-.12,0-.22-.03-.31-.08l-3.2-1.85c-.09-.05-.13-.11-.14-.18,0-.07.03-.12.1-.17l.83-.48c.31-.18.69-.25,1.16-.24.47.02.88.13,1.23.33l1.28.74c.18.1.38.16.62.17.23.01.43-.03.58-.12l.55-.32c.15-.09.22-.2.2-.33-.02-.13-.12-.25-.29-.36l-1.28-.74c-.18-.1-.38-.16-.61-.17-.23,0-.42.03-.58.12-.08.04-.17.06-.29.06-.11,0-.22-.03-.3-.08-.09-.05-.14-.11-.15-.18,0-.07.03-.12.1-.17.31-.18.69-.25,1.16-.24.47.02.88.13,1.23.33l1.28.74c.35.2.55.44.58.71.03.27-.1.49-.41.67l-.55.32c-.31.18-.69.25-1.16.24-.47-.02-.88-.13-1.23-.34Z" style="fill: #fff; stroke-width: 0px;"/>
        <path d="M74.06,330.65l-.28.16c-.31.18-.69.25-1.16.24-.47-.02-.87-.13-1.23-.33l-1.28-.74c-.35-.2-.55-.44-.58-.71-.03-.27.1-.49.41-.67.07-.04.17-.06.29-.06.12,0,.22.03.31.08.09.05.14.11.14.18s-.02.13-.1.17c-.15.09-.22.2-.2.33.02.13.11.25.29.35l1.28.74c.18.1.38.16.61.17.23,0,.43-.03.58-.12l.28-.16c.15-.09.22-.2.2-.33s-.11-.25-.29-.35l-.32-.18c-.09-.05-.14-.11-.15-.18,0-.07.03-.12.1-.17.08-.04.17-.06.29-.06.12,0,.22.03.31.08l.32.18c.18.1.38.16.61.17.23,0,.43-.03.58-.12l.28-.16c.15-.09.22-.2.2-.33-.02-.13-.11-.25-.29-.35l-1.28-.74c-.18-.1-.38-.16-.61-.17-.23,0-.42.03-.58.12-.08.04-.18.06-.29.06-.12,0-.22-.03-.31-.08-.09-.05-.14-.11-.14-.18,0-.07.03-.12.1-.17.31-.18.69-.25,1.16-.24.47.02.87.13,1.23.33l1.28.74c.35.2.55.44.58.71s-.1.49-.41.67l-.28.16c-.16.09-.35.16-.57.2-.22.04-.45.05-.69.03.03.14.01.27-.05.4-.07.13-.18.24-.34.33Z" style="fill: #fff; stroke-width: 0px;"/>
        <path d="M77.77,334.29c-.12,0-.22-.03-.31-.08-.09-.05-.14-.11-.14-.18s.03-.12.1-.17l1.53-.89c-.3-.06-.56-.15-.79-.28l-1.28-.74c-.35-.2-.54-.44-.58-.71-.03-.27.1-.49.41-.67l1.38-.8c.07-.04.17-.06.29-.06.12,0,.22.03.31.08.09.05.14.11.15.18,0,.07-.02.12-.1.17l-1.38.8c-.15.09-.22.2-.2.33.02.13.11.25.29.35l1.28.74c.18.1.38.16.61.17s.43-.03.58-.12l1.38-.8c.07-.04.17-.06.29-.06.12,0,.22.03.31.08.09.05.14.11.15.18,0,.07-.02.12-.1.17l-3.87,2.23c-.07.04-.17.06-.29.06Z" style="fill: #fff; stroke-width: 0px;"/>
        <path d="M87.71,336.77s-.05.05-.05.08c0,.03.03.06.07.09l1.76,1.02c.35.2.55.44.58.71.03.27-.1.49-.41.67l-.55.32c-.31.18-.69.25-1.16.24-.47-.02-.87-.13-1.23-.33l-1.28-.74c-.35-.2-.54-.44-.58-.71-.03-.27.1-.49.41-.67.08-.04.17-.06.29-.06.12,0,.22.03.31.09.09.05.14.11.14.18,0,.07-.03.12-.1.17-.15.09-.22.2-.2.33.02.13.11.25.29.35l1.28.74c.18.1.38.16.61.17.23,0,.43-.03.58-.12l.55-.32c.15-.09.22-.2.2-.33s-.11-.25-.29-.35l-1.92-1.11c-.18-.1-.27-.22-.29-.35-.02-.13.05-.24.2-.33l1.38-.8c.08-.04.17-.07.29-.06.11,0,.22.03.31.08l3.19,1.84c.09.05.13.11.15.18.01.07-.02.12-.1.17-.08.04-.17.06-.29.06-.12,0-.22-.03-.31-.08l-2.71-1.57s-.09-.04-.15-.04-.11,0-.15.03l-.83.48Z" style="fill: #fff; stroke-width: 0px;"/>
        <path d="M93.32,340.17l1.28.74c.36.21.55.44.58.71.03.27-.1.49-.41.67l-.55.32c-.31.18-.69.25-1.16.23-.46-.02-.88-.13-1.23-.34l-1.28-.74c-.35-.2-.55-.44-.58-.71-.03-.27.1-.49.41-.67l2.21-1.28c.31-.18.69-.25,1.16-.24.47.02.87.13,1.23.33l1.28.74c.36.21.55.44.58.71.03.27-.1.49-.41.67-.08.04-.17.06-.29.06-.12,0-.22-.03-.31-.08-.09-.05-.14-.11-.14-.18,0-.07.03-.12.1-.17.15-.09.22-.2.2-.33s-.12-.25-.29-.36l-1.28-.74c-.18-.1-.38-.16-.61-.17-.23,0-.42.03-.58.12l-.7.41c.3.06.56.15.79.28ZM91.02,340.76c-.15.09-.22.2-.2.33.02.13.11.25.29.35l1.28.74c.18.1.39.16.62.17.23,0,.42-.03.58-.12l.55-.32c.15-.09.22-.2.2-.33-.02-.13-.12-.25-.29-.36l-1.28-.74c-.18-.1-.38-.16-.61-.17-.23,0-.42.03-.58.12l-.55.32Z" style="fill: #fff; stroke-width: 0px;"/>
        <path d="M100.69,344.58l-3.79.53s-.02,0-.05,0c-.03,0-.05,0-.07,0-.02,0-.04,0-.07.01-.03,0-.06,0-.08,0-.02,0-.05,0-.08,0-.03,0-.06,0-.09,0s-.05,0-.08-.02c-.03,0-.05-.02-.07-.03-.09-.05-.14-.11-.16-.17-.02-.06.02-.12.12-.17.06-.03.2-.06.44-.07,1.22-.17,2.39-.34,3.51-.52.11-.02.22-.05.34-.09.12-.04.2-.08.26-.11l.09-.05c.15-.09.22-.2.2-.33-.02-.13-.11-.25-.29-.35l-.64-.37-.32-.18-1.28-.74c-.09-.05-.14-.11-.15-.18,0-.07.03-.12.1-.16.08-.04.17-.06.29-.06.12,0,.22.03.31.08l1.28.74.32.18.64.37c.35.2.55.44.58.71.03.27-.1.49-.41.67-.12.07-.26.13-.44.19-.18.06-.32.1-.41.12Z" style="fill: #fff; stroke-width: 0px;"/>
        <path d="M104.71,348.34l-.28.16c-.31.18-.69.25-1.16.23-.46-.02-.87-.13-1.23-.33l-1.28-.74c-.35-.2-.55-.44-.58-.71-.03-.27.1-.49.41-.67l.28-.16c.16-.09.35-.16.57-.2.22-.04.45-.05.69-.03-.03-.14-.02-.27.05-.4.07-.13.18-.24.34-.33l.28-.16c.31-.18.69-.25,1.16-.24.47.02.87.13,1.23.33l1.28.74c.35.2.55.44.58.71.03.27-.1.49-.41.67l-.28.16c-.16.09-.35.16-.58.2-.22.04-.45.05-.69.03.03.14.01.27-.05.4-.07.13-.18.24-.34.33ZM106.01,346.86c.15-.09.22-.2.2-.33-.02-.13-.11-.25-.29-.35l-1.28-.74c-.18-.1-.38-.16-.61-.17-.23,0-.42.03-.58.12l-.28.16c-.15.09-.22.2-.2.33.02.13.11.25.29.35l1.28.74c.18.1.38.16.61.17.23,0,.43-.03.58-.12l.28-.16ZM104.07,347.97c.15-.09.22-.2.2-.33s-.11-.25-.29-.35l-1.28-.74c-.18-.1-.38-.16-.61-.17-.23,0-.42.03-.58.12l-.28.16c-.15.09-.22.2-.2.33.02.13.11.25.29.35l1.28.74c.18.1.38.16.61.17.23,0,.43-.03.58-.12l.28-.16Z" style="fill: #fff; stroke-width: 0px;"/>
        <path d="M112.27,354.3l-1.28-.74c-.35-.2-.55-.44-.58-.71-.03-.27.1-.49.41-.67.07-.04.17-.06.29-.06.12,0,.22.03.31.08.09.05.14.11.14.18,0,.07-.03.12-.1.17-.15.09-.22.2-.2.33.02.13.11.25.29.35l1.28.74c.18.1.38.16.62.17.23,0,.43-.03.58-.12l.7-.41c-.3-.06-.57-.15-.8-.29l-1.28-.74c-.35-.2-.55-.44-.58-.71-.03-.27.1-.49.41-.67l.55-.32c.31-.18.69-.25,1.16-.24.47.02.87.13,1.23.33l1.28.74c.36.21.55.44.58.71.03.27-.1.49-.41.67l-2.21,1.28c-.31.18-.69.25-1.16.23-.46-.02-.88-.13-1.23-.34ZM116.23,352.76c.15-.09.22-.2.2-.33-.02-.13-.12-.25-.29-.36l-1.28-.74c-.18-.1-.38-.16-.61-.17-.23,0-.42.03-.58.12l-.55.32c-.15.09-.22.2-.2.33.02.13.11.25.29.35l1.28.74c.18.1.38.16.62.17.23,0,.43-.03.58-.12l.55-.32Z" style="fill: #fff; stroke-width: 0px;"/>
        <path d="M117.05,357.06l-1.92-1.11c-.09-.05-.13-.11-.14-.18-.01-.07.02-.12.1-.17.08-.04.17-.06.29-.06.12,0,.22.03.31.08l.64.37,2.77-1.6c.15-.09.22-.2.2-.33-.02-.13-.11-.25-.28-.35,0,0,0,0-.01,0-.09-.05-.14-.11-.15-.18s.03-.12.1-.16c.08-.04.17-.06.29-.06.12,0,.22.03.31.08h0s0,0,0,0c.35.2.55.44.58.71.03.27-.1.49-.41.67l-2.77,1.6.64.37c.09.05.14.11.14.18,0,.07-.03.12-.1.17s-.17.06-.29.06c-.12,0-.22-.03-.3-.08Z" style="fill: #fff; stroke-width: 0px;"/>
        <path d="M121.21,359.46l-1.28-.74c-.35-.2-.55-.44-.58-.71-.03-.27.1-.49.41-.67l2.21-1.28c.31-.18.69-.25,1.16-.24.47.02.87.13,1.23.33l1.28.74c.35.2.55.44.58.71.03.27-.1.49-.41.67l-2.21,1.28c-.31.18-.69.25-1.16.24-.47-.02-.87-.13-1.23-.33ZM120.48,358.41l1.28.74c.1.06.23.1.37.14l.43-2.81-2.16,1.25c-.15.09-.22.2-.2.33.02.13.11.25.29.35ZM125.08,357.23l-1.28-.74c-.11-.06-.23-.11-.37-.14l-.43,2.81,2.16-1.25c.15-.09.22-.2.2-.33-.02-.13-.11-.25-.29-.35Z" style="fill: #fff; stroke-width: 0px;"/>
        <path d="M125.99,362.23l-1.92-1.11c-.09-.05-.13-.11-.14-.17,0-.07.02-.12.1-.17.08-.04.17-.06.29-.06.12,0,.22.03.31.08l.64.37,2.76-1.6c.15-.09.22-.2.21-.33-.02-.13-.11-.25-.28-.35,0,0,0,0-.01,0-.09-.05-.14-.11-.15-.18,0-.07.03-.12.1-.16.08-.04.17-.06.29-.06.12,0,.22.03.31.08h0s0,0,0,0c.35.2.55.44.58.71.03.27-.1.49-.41.67l-2.76,1.6.64.37c.09.05.14.11.14.18,0,.07-.03.12-.1.17-.08.04-.17.06-.29.06-.12,0-.22-.03-.3-.08Z" style="fill: #fff; stroke-width: 0px;"/>
        <path d="M134.93,367.39l-1.92-1.11c-.09-.05-.13-.11-.14-.18-.01-.07.02-.12.1-.17.08-.04.17-.06.29-.06.12,0,.22.03.31.08l.64.37,2.76-1.6c.15-.09.22-.2.2-.33-.02-.13-.11-.25-.28-.35,0,0,0,0-.01,0-.09-.05-.14-.11-.15-.18s.03-.12.1-.16c.08-.04.17-.06.29-.06.12,0,.22.03.31.08h0s0,0,0,0c.35.2.55.44.58.71.03.27-.1.49-.41.67l-2.76,1.6.64.37c.09.05.14.11.14.18,0,.07-.03.12-.1.17-.08.04-.17.06-.29.06-.12,0-.22-.03-.3-.08Z" style="fill: #fff; stroke-width: 0px;"/>
        <path d="M140.74,368.83l-1.28-.74c-.18-.1-.38-.16-.61-.17-.23,0-.42.03-.58.12l-.41.24s-.05.05-.05.08c0,.03.03.06.07.09l2.72,1.57c.09.05.13.11.14.18,0,.07-.03.12-.1.17-.08.04-.17.06-.29.06-.12,0-.22-.03-.3-.08l-3.2-1.85c-.09-.05-.13-.11-.14-.18,0-.07.02-.12.1-.17l.83-.48c.31-.18.69-.25,1.16-.24.47.02.87.13,1.23.33l1.28.74c.18.1.38.16.62.17.23.01.43-.03.58-.12l.55-.32c.15-.09.22-.2.2-.33-.02-.13-.11-.25-.29-.36l-1.28-.74c-.18-.1-.38-.16-.61-.17-.23,0-.42.03-.58.12-.08.04-.17.06-.29.06-.11,0-.22-.03-.3-.08-.09-.05-.14-.11-.15-.18,0-.07.02-.12.1-.17.31-.18.69-.25,1.16-.24.47.02.87.13,1.23.33l1.28.74c.36.21.55.44.58.71.03.27-.1.49-.41.67l-.55.32c-.31.18-.69.26-1.16.24s-.88-.13-1.23-.34Z" style="fill: #fff; stroke-width: 0px;"/>
        <path d="M143.87,372.55l-1.92-1.11c-.09-.05-.13-.11-.14-.18-.01-.07.02-.12.1-.17.08-.04.17-.06.29-.06.12,0,.22.03.31.08l.64.37,2.76-1.6c.15-.09.22-.2.2-.33-.02-.13-.11-.25-.28-.35,0,0,0,0,0,0-.09-.05-.14-.11-.15-.18s.03-.12.1-.16c.08-.04.17-.06.29-.06.12,0,.22.03.31.08h0s0,0,0,0c.35.2.55.44.58.71.03.27-.1.49-.41.67l-2.76,1.6.64.37c.09.05.14.11.14.18,0,.07-.03.12-.1.17-.08.04-.17.06-.29.06-.12,0-.22-.03-.3-.08Z" style="fill: #fff; stroke-width: 0px;"/>
        <path d="M150.68,374.89l-.28.16c-.31.18-.69.25-1.16.24-.47-.02-.87-.13-1.23-.33l-1.28-.74c-.35-.2-.55-.44-.58-.71-.03-.27.1-.49.41-.67.07-.04.17-.06.29-.06.12,0,.22.03.31.08.09.05.14.11.15.18,0,.07-.02.12-.1.17-.15.09-.22.2-.2.33.02.13.11.25.29.35l1.28.74c.18.1.38.16.61.17.23,0,.43-.03.58-.12l.28-.16c.15-.09.22-.2.2-.33s-.11-.25-.29-.35l-.32-.18c-.09-.05-.14-.11-.15-.18,0-.07.03-.12.1-.16.08-.04.17-.06.29-.06.12,0,.22.03.31.08l.32.18c.18.1.38.16.61.17s.43-.03.58-.12l.28-.16c.15-.09.22-.2.2-.33-.02-.13-.11-.25-.29-.35l-1.28-.74c-.18-.1-.38-.16-.61-.17-.23,0-.42.03-.58.12-.08.04-.17.06-.29.06-.12,0-.22-.03-.31-.09-.09-.05-.14-.11-.14-.18,0-.07.03-.12.1-.17.31-.18.69-.25,1.16-.24.47.02.87.13,1.23.33l1.28.74c.35.2.55.44.58.71.03.27-.1.49-.41.67l-.28.16c-.16.09-.35.16-.58.2-.22.04-.45.05-.69.03.03.14.01.27-.06.4-.07.13-.18.24-.34.33Z" style="fill: #fff; stroke-width: 0px;"/>
      </g>
      <g>
        <g>
          <path d="M129.79,374.68l-1.12-.65c-.05-.03-.08-.06-.08-.1,0-.04.01-.07.06-.1.04-.03.1-.04.17-.03.07,0,.13.02.18.05l.37.22,1.61-.93c.09-.05.13-.12.12-.19,0-.08-.06-.15-.16-.21,0,0,0,0,0,0-.05-.03-.08-.06-.09-.1,0-.04.02-.07.06-.1.04-.03.1-.04.17-.04.07,0,.13.02.18.05h0s0,0,0,0c.21.12.32.26.34.41.02.16-.06.29-.24.39l-1.61.93.37.22c.05.03.08.06.08.1,0,.04-.02.07-.06.1-.04.03-.1.04-.17.03-.07,0-.13-.02-.18-.05Z" style="fill: #fff; stroke-width: 0px;"/>
          <path d="M133.18,375.52l-.75-.43c-.1-.06-.22-.09-.36-.1-.14,0-.25.02-.34.07l-.24.14s-.03.03-.03.05c0,.02.02.04.04.05l1.59.92c.05.03.08.06.08.1,0,.04-.01.07-.06.1-.04.03-.1.04-.17.03-.07,0-.13-.02-.18-.05l-1.87-1.08c-.05-.03-.08-.06-.08-.1,0-.04.01-.07.06-.1l.48-.28c.18-.1.4-.15.67-.14.27.01.51.08.72.2l.75.43c.1.06.22.09.36.1.14,0,.25-.02.34-.07l.32-.19c.09-.05.13-.12.12-.2,0-.08-.07-.15-.17-.21l-.75-.43c-.1-.06-.22-.09-.36-.1-.14,0-.25.02-.34.07-.05.03-.1.04-.17.03-.07,0-.13-.02-.18-.05-.05-.03-.08-.06-.09-.1,0-.04.01-.07.06-.1.18-.1.4-.15.67-.14.27.01.51.08.72.2l.75.43c.21.12.32.26.34.42.02.16-.06.29-.24.39l-.32.19c-.18.1-.4.15-.68.14-.27-.01-.51-.08-.72-.2Z" style="fill: #fff; stroke-width: 0px;"/>
          <path d="M137.66,378.1l-.75-.43c-.1-.06-.22-.09-.36-.1-.14,0-.25.02-.34.07l-.24.14s-.03.03-.03.05.02.04.04.05l1.59.92c.05.03.08.06.08.1,0,.04-.01.07-.06.1-.04.03-.1.04-.17.03-.07,0-.13-.02-.18-.05l-1.87-1.08c-.05-.03-.08-.06-.08-.1,0-.04.01-.07.06-.1l.48-.28c.18-.1.4-.15.67-.14.27.01.51.08.72.2l.75.43c.1.06.22.09.36.1.14,0,.25-.02.34-.07l.32-.19c.09-.05.13-.12.12-.19s-.07-.15-.17-.21l-.75-.43c-.1-.06-.22-.09-.36-.1-.14,0-.25.02-.34.07-.05.03-.1.04-.17.03-.07,0-.13-.02-.18-.05-.05-.03-.08-.06-.09-.1,0-.04.01-.07.06-.1.18-.1.4-.15.67-.14.27.01.51.08.72.2l.75.43c.21.12.32.26.34.42.02.16-.06.29-.24.39l-.32.19c-.18.1-.4.15-.68.14-.27-.01-.51-.08-.72-.2Z" style="fill: #fff; stroke-width: 0px;"/>
          <path d="M141.22,380.35l-.16.09c-.18.1-.4.15-.68.14-.27-.01-.51-.08-.72-.2l-.75-.43c-.21-.12-.32-.26-.34-.41-.02-.16.06-.29.24-.39.04-.03.1-.04.17-.03.07,0,.13.02.18.05.05.03.08.06.08.1s-.01.07-.06.1c-.09.05-.13.12-.12.19.01.08.07.15.17.21l.75.43c.1.06.22.09.36.1.14,0,.25-.02.34-.07l.16-.09c.09-.05.13-.12.12-.19s-.07-.15-.17-.21l-.19-.11c-.05-.03-.08-.07-.09-.1,0-.04.02-.07.06-.1s.1-.04.17-.04c.07,0,.13.02.18.05l.19.11c.1.06.22.09.36.1.14,0,.25-.02.34-.07l.16-.09c.09-.05.13-.12.12-.19,0-.08-.07-.15-.17-.21l-.75-.43c-.1-.06-.22-.09-.36-.1-.14,0-.25.02-.34.07-.05.03-.1.04-.17.03s-.13-.02-.18-.05c-.05-.03-.08-.06-.08-.1,0-.04.02-.07.06-.1.18-.1.4-.15.67-.14.27.01.51.08.72.2l.75.43c.21.12.32.26.34.41.02.16-.06.29-.24.39l-.16.09c-.09.05-.21.09-.34.11-.13.02-.26.03-.4.02.02.08,0,.16-.03.23-.04.07-.1.14-.2.19Z" style="fill: #fff; stroke-width: 0px;"/>
        </g>
        <path d="M133.43,377.23s0,0,0-.01c-.03-.06,0-.14.07-.16l3.24-1.35c.06-.03.14,0,.16.07.03.06,0,.14-.07.16l-3.24,1.35c-.06.02-.12,0-.16-.05Z" style="fill: #fff; stroke-width: 0px;"/>
      </g>
      <g>
        <path d="M172.22,362.18l-10.84,6.26c-.81.47-2.13.47-2.94,0l-13.23-7.54c-.81-.47-.81-1.23,0-1.7l10.84-6.26c.81-.47,2.13-.47,2.94,0,3.59,2.07,9.64,5.47,13.23,7.54.81.47.81,1.23,0,1.7Z" style="fill: #27debf;"/>
        <g style="clip-path: url(#clippath);">
          <path d="M172.22,362.18l-10.84,6.26c-.81.47-2.13.47-2.94,0l-13.23-7.54c-.81-.47-.81-1.23,0-1.7l10.84-6.26c.81-.47,2.13-.47,2.94,0,3.59,2.07,9.64,5.47,13.23,7.54.81.47.81,1.23,0,1.7Z" style="fill: #fff; opacity: .8; stroke-width: 0px;"/>
          <polygon points="171.82 365.41 172.81 365.21 151.14 352.8 150.14 352.99 171.82 365.41" style="fill: #27debf; stroke-width: 0px;"/>
          <polygon points="158.03 363.63 159.03 363.82 164.55 360.63 163.55 360.44 158.03 363.63" style="fill: #27debf; stroke-width: 0px;"/>
          <polygon points="152.87 360.77 153.87 360.96 159.38 357.78 158.39 357.59 152.87 360.77" style="fill: #27debf; stroke-width: 0px;"/>
          <polygon points="166.28 368.6 167.28 368.41 145.61 356 144.61 356.19 166.28 368.6" style="fill: #27debf; stroke-width: 0px;"/>
        </g>
      </g>
      <path d="M103.07,360.82l-51.79-29.9c-.9-.52-2.36-.52-3.26,0l-.23.13c-.9.52-.9,1.36,0,1.88l51.79,29.9c.9.52,2.36.52,3.26,0l.23-.13c.9-.52.9-1.36,0-1.88Z" style="fill: #455a64; stroke-width: 0px;"/>
      <g>
        <path d="M98.26,303.44c.1-.04.2-.06.3-.05.1,0,.19.03.25.07l.82.47c.07.04.12.09.12.16,0,.06-.03.11-.12.16-.3.15-.64.27-1.04.36-.39.09-.82.13-1.29.12-.46-.01-.95-.08-1.46-.22-.51-.13-1.03-.35-1.55-.65-.46-.27-.81-.55-1.02-.83-.22-.29-.33-.57-.33-.86,0-.28.1-.57.3-.84.2-.28.49-.54.87-.79.24-.15.52-.32.83-.5.31-.18.6-.34.87-.48.43-.22.89-.39,1.37-.5.48-.12.97-.18,1.46-.17.49,0,.99.07,1.48.19.49.13.97.32,1.44.59.53.3.9.6,1.13.9.23.29.35.58.37.84.02.27-.05.52-.21.75-.16.23-.37.43-.61.59-.08.05-.17.07-.27.07-.11,0-.2-.03-.27-.07l-.82-.47c-.07-.04-.11-.09-.13-.15-.02-.06.01-.12.09-.18.11-.09.2-.19.25-.31.05-.12.07-.24.04-.37-.03-.13-.11-.27-.24-.42-.13-.15-.33-.3-.59-.45-.26-.15-.53-.26-.81-.33-.28-.07-.55-.1-.81-.1-.27,0-.53.04-.79.1-.26.07-.5.16-.72.27-.27.14-.56.3-.87.48-.31.18-.59.35-.83.5-.2.13-.36.27-.47.42-.11.15-.17.3-.18.45,0,.15.05.31.17.47.11.16.3.31.57.47.26.15.52.26.78.34.26.08.5.12.74.14.23.02.45.01.65-.02.2-.03.38-.08.53-.15Z" style="fill: #27debf; stroke-width: 0px;"/>
        <path d="M108.52,303.8c.84.48,1.28.97,1.33,1.44.05.48-.28.92-.97,1.32-.49.28-1.02.46-1.59.53-.57.07-1.16.03-1.77-.13l-1.1,2.24s-.05.06-.08.08c-.06.03-.13.05-.22.05s-.16-.02-.22-.05l-.86-.49c-.13-.08-.2-.15-.2-.23s.01-.13.04-.18l1.03-2.12-1.34-.77-2.35,1.36c-.07.04-.16.06-.27.06s-.2-.02-.27-.06l-.82-.47c-.07-.04-.11-.1-.11-.16s.04-.12.11-.16l6.52-3.76c.07-.04.16-.06.27-.06.11,0,.2.02.27.06l2.6,1.5ZM103.83,304.76l1.46.84c.38.22.76.36,1.12.41.36.05.73-.03,1.11-.24.38-.22.52-.43.41-.64-.1-.2-.34-.42-.73-.64l-1.46-.84-1.92,1.11Z" style="fill: #27debf; stroke-width: 0px;"/>
        <path d="M111.31,312.11c.07.04.11.09.11.16s-.04.12-.11.16l-.71.41c-.07.04-.16.06-.27.06s-.2-.02-.27-.06l-4.43-2.56c-.07-.04-.11-.1-.11-.16s.04-.12.11-.16l6.52-3.76c.07-.04.16-.06.27-.06.11,0,.2.02.27.06l4.35,2.51c.07.04.11.1.11.16s-.04.11-.11.16l-.72.41c-.07.04-.16.06-.27.06s-.2-.02-.27-.06l-3.26-1.88-1.6.93,3.04,1.75c.07.04.11.1.11.16s-.04.11-.11.16l-.72.41c-.07.04-.16.06-.27.06s-.2-.02-.27-.06l-3.04-1.75-1.68.97,3.34,1.93Z" style="fill: #27debf; stroke-width: 0px;"/>
        <path d="M121.4,311.23c.5.29.86.58,1.1.86.24.29.35.57.36.85,0,.28-.1.56-.31.83s-.52.54-.91.8c-.47.3-.97.59-1.49.86-.45.23-.91.4-1.39.53-.48.12-.95.18-1.44.18s-.97-.07-1.46-.2c-.49-.13-.98-.34-1.46-.62l-2.54-1.47c-.07-.04-.11-.09-.11-.16s.04-.11.11-.16l6.52-3.76c.07-.04.17-.06.27-.06s.2.02.27.06l2.49,1.44ZM120.27,313.8c.2-.13.36-.27.47-.42.11-.15.17-.3.17-.46s-.07-.32-.2-.49c-.13-.17-.34-.33-.63-.5l-1.35-.78-4.54,2.62,1.4.81c.28.16.55.27.83.35.28.07.55.11.82.11s.53-.03.79-.1c.26-.07.5-.16.73-.28.52-.27,1.02-.56,1.49-.86Z" style="fill: #27debf; stroke-width: 0px;"/>
        <path d="M118.94,317.97c-.07-.04-.11-.1-.11-.16s.04-.12.11-.16l6.52-3.76c.07-.04.17-.06.27-.06.11,0,.2.02.27.06l.82.47c.07.04.11.09.11.16,0,.06-.04.11-.11.16l-6.52,3.76c-.07.04-.16.06-.27.06-.11,0-.2-.02-.27-.06l-.82-.47Z" style="fill: #27debf; stroke-width: 0px;"/>
        <path d="M133.38,318.15c.07.04.11.09.11.16s-.04.11-.11.16l-.72.41c-.07.04-.16.06-.27.06s-.2-.02-.27-.06l-1.82-1.05-5.53,3.19c-.07.04-.16.06-.27.06-.11,0-.2-.02-.27-.06l-.82-.47c-.07-.04-.11-.1-.11-.16,0-.06.04-.12.11-.16l5.53-3.19-1.82-1.05c-.07-.04-.11-.09-.11-.16,0-.06.04-.11.11-.16l.72-.41c.07-.04.16-.06.27-.06.11,0,.2.02.27.06l5,2.88Z" style="fill: #27debf; stroke-width: 0px;"/>
        <path d="M136.22,325.36c.1-.04.2-.06.3-.05.1,0,.19.03.25.07l.82.47c.07.04.12.09.12.16s-.03.11-.12.16c-.3.15-.64.27-1.03.36-.39.09-.82.13-1.29.12-.46-.01-.95-.08-1.46-.22-.51-.13-1.03-.35-1.55-.65-.46-.27-.81-.54-1.02-.83-.22-.29-.33-.57-.33-.86,0-.29.1-.57.3-.85.2-.28.49-.54.87-.79.24-.16.52-.32.83-.5.31-.18.6-.34.87-.48.43-.22.89-.38,1.37-.5.48-.12.97-.18,1.46-.17.49,0,.99.07,1.48.19.49.13.97.32,1.44.59.53.3.9.6,1.13.9.23.29.35.58.37.84.02.27-.05.52-.21.75s-.37.43-.61.59c-.07.05-.16.07-.27.07-.11,0-.2-.03-.27-.07l-.82-.47c-.07-.04-.11-.09-.13-.15-.02-.06.01-.12.09-.18.11-.09.2-.19.25-.31.05-.12.07-.24.04-.37-.03-.13-.11-.27-.24-.42-.13-.15-.33-.3-.59-.45-.26-.15-.53-.26-.81-.33-.27-.07-.55-.1-.81-.1-.27,0-.53.04-.79.11-.26.07-.5.16-.72.27-.27.14-.56.3-.87.48-.31.18-.59.35-.83.5-.2.13-.36.27-.47.42-.11.15-.17.3-.18.45s.05.31.17.47c.11.16.3.31.57.47.26.15.52.27.78.34.26.08.5.12.74.14.23.02.45.01.65-.02.2-.03.38-.08.53-.15Z" style="fill: #27debf; stroke-width: 0px;"/>
        <path d="M146.86,325.93c.11.06.16.13.16.19,0,.06-.04.14-.12.23l-3.9,5.11s-.03.03-.06.05c-.07.04-.16.06-.27.06s-.2-.02-.27-.06l-.73-.42c-.13-.08-.2-.15-.2-.21,0-.06.02-.12.06-.16l.69-.9-3.19-1.84-1.55.4c-.07.02-.17.03-.28.03-.11,0-.23-.04-.37-.11l-.72-.42c-.08-.04-.11-.09-.11-.16s.04-.11.11-.16c.02-.02.05-.03.08-.03l8.85-2.25c.15-.04.29-.06.4-.07.11,0,.22.03.33.09l1.11.64ZM142.98,328.81l1.77-2.3-3.98,1.02,2.22,1.28Z" style="fill: #27debf; stroke-width: 0px;"/>
        <path d="M153.52,329.78c.84.48,1.28.97,1.33,1.44.05.48-.28.92-.97,1.32-.49.28-1.02.46-1.59.53-.57.07-1.16.03-1.77-.13l-1.1,2.24s-.05.06-.08.08c-.06.04-.14.05-.22.05s-.16-.02-.22-.05l-.86-.49c-.13-.08-.2-.15-.2-.23,0-.07.01-.13.04-.18l1.03-2.12-1.34-.78-2.35,1.36c-.07.04-.16.06-.27.06s-.2-.02-.27-.06l-.82-.47c-.07-.04-.11-.09-.11-.16s.04-.11.11-.16l6.52-3.76c.07-.04.16-.06.27-.06s.2.02.27.06l2.6,1.5ZM148.82,330.74l1.46.85c.38.22.76.36,1.12.41s.73-.03,1.11-.24c.38-.22.52-.43.42-.64-.1-.21-.34-.42-.73-.64l-1.46-.84-1.92,1.11Z" style="fill: #27debf; stroke-width: 0px;"/>
        <path d="M160.27,333.71c.5.29.86.57,1.1.86.24.29.35.57.36.85,0,.28-.1.56-.31.83-.21.27-.52.54-.91.8-.47.3-.97.59-1.49.86-.45.23-.91.4-1.39.53-.47.12-.95.18-1.44.18s-.97-.07-1.46-.2c-.49-.13-.98-.34-1.46-.62l-2.54-1.47c-.07-.04-.11-.1-.11-.16s.04-.12.11-.16l6.52-3.76c.07-.04.16-.06.27-.06.11,0,.2.02.27.06l2.49,1.44ZM159.14,336.27c.2-.13.36-.27.47-.42.11-.15.17-.3.17-.46s-.06-.32-.2-.49c-.13-.16-.34-.33-.63-.5l-1.35-.78-4.54,2.62,1.4.81c.27.16.55.27.83.35.28.07.55.11.82.11s.53-.03.79-.1c.26-.07.5-.16.73-.28.53-.27,1.02-.56,1.49-.86Z" style="fill: #27debf; stroke-width: 0px;"/>
      </g>
    </g>
  </g>
  <g id="Character">
    <g id="Character-2" data-name="Character">
      <g>
        <path d="M375.62,75.77c-2.91,6.26-7.89,16.62-10.62,22.36l-10.68-12.57h-8.97s10.8,23.03,17.24,28.38c2.42,2.01,5.46,1.77,7.37-.44s4.33-5.49,7.23-9.96c5.1-7.87,7.38-11.28,7.38-11.28l6.43-27.01c-5.63-.45-11.34,1.85-15.38,10.54Z" style="fill: #ffa8a7; stroke-width: 0px;"/>
        <path d="M392.03,65.18c-3.43-.13-7.16-.56-10.44,2.3-2.15,1.88-4.92,4.84-7.13,10.04-2.21,5.2-5.64,11.79-5.64,11.79,0,0,2.39,3.71,6.41,6.68,4.02,2.97,7.68,3.23,7.68,3.23l9.11-34.04Z" style="fill: #27debf; stroke-width: 0px;"/>
        <path d="M392.03,65.18c-3.43-.13-7.16-.56-10.44,2.3-2.15,1.88-4.92,4.84-7.13,10.04-2.21,5.2-5.64,11.79-5.64,11.79,0,0,2.39,3.71,6.41,6.68,4.02,2.97,7.68,3.23,7.68,3.23l9.11-34.04Z" style="opacity: .45; stroke-width: 0px;"/>
        <path d="M365,98.13s2.59,3.09,3.28,4.48c0,0-1.15-4.24-2.71-5.69l-.57,1.21Z" style="fill: #f28f8f; stroke-width: 0px;"/>
        <g>
          <path d="M342.65,68.84h-.02s.85-.89.85-.89h0c.19-.18.51-.26.95-.19l10.34,1.76c.96.16,2.07,1.01,2.47,1.89l9.3,20.21c.22.47.18.85-.03,1.08h0s-.88.92-.88.92h0c-.19.18-.52.27-.95.2l-10.34-1.76c-.96-.16-2.07-1.01-2.47-1.89-1.83-3.97-7.47-16.24-9.3-20.21-.23-.5-.18-.89.07-1.12Z" style="fill: #455a64; stroke-width: 0px;"/>
          <path d="M365.68,92.52l-9.3-20.21c-.41-.88-1.51-1.73-2.47-1.89l-10.34-1.76c-.96-.16-1.41.42-1,1.31,1.83,3.97,7.47,16.24,9.3,20.21.41.88,1.51,1.73,2.47,1.89l10.34,1.76c.96.16,1.41-.42,1-1.31Z" style="fill: #263238; stroke-width: 0px;"/>
          <path d="M355.07,70.88c.57.36,1.07.89,1.32,1.42l9.3,20.21c.2.45.19.83,0,1.06l.83-.86h-.01c.22-.24.25-.62.03-1.09l-9.3-20.22c-.23-.5-.69-.98-1.22-1.35l-.95.83Z" style="fill: #37474f; stroke-width: 0px;"/>
        </g>
        <path d="M347.54,88.83c-4.28-4.91-4.16-11.06-2.19-12.84l1.31,2.84s6.55,1.46,9.7,1.21,5.72-.99,6.59-.38c1.83,1.29,2.35,6.78-2.88,8.77-4.45,1.69-12.51.39-12.51.39Z" style="fill: #ffa8a7; stroke-width: 0px;"/>
      </g>
      <g id="Botom">
        <g>
          <path d="M422.79,250.18c-2.76,1.48-6.13,1.36-9.42,0l-1.36-17.92,10.79,1.42v16.5Z" style="fill: #ffa8a7; stroke-width: 0px;"/>
          <path d="M389.72,239.47c-2.33,5.05-6.55,3.65-11.3.42l.83-18.01h11.45l-.99,17.59Z" style="fill: #ffa8a7; stroke-width: 0px;"/>
          <g>
            <path d="M402.61,267.14c-.3.29-.21,2.24.12,2.77.36.56,2.43,2.33,6.16,2.59,3.57.26,6.76-.23,8.85-1.56,2.1-1.33,3.11-2.8,3.31-4.83s-.03-4,.94-5.56c.9-1.45,2.32-3.07,2.63-3.86.68-1.7.02-4.14.02-4.14l-22.04,14.59Z" style="fill: #263238; stroke-width: 0px;"/>
            <path d="M412.4,249.39c-.06.75-.19,1.5-.44,2.26-.52,1.58-1.3,3.06-2.19,4.47-.45.73-.93,1.44-1.49,2.1-1.08,1.28-2.42,2.34-3.56,3.57-1.14,1.23-2.11,2.73-2.2,4.38-.15,2.8,2.89,3.75,5.23,4.17,2.5.44,5.16.31,7.6-.38,2.71-.77,4.67-2.87,5.12-5.58.13-.78.08-1.57.17-2.35.21-1.78,1.13-3.41,2.18-4.9.61-.86,1.26-1.7,1.67-2.67.73-1.73.15-3.68-.32-5.41-.4-1.49-.86-3.18-1.38-3.04,0,.3.02.62-.12.9-.17.32-.3.5-.41.88-.11.39-.24.78-.43,1.15-.28.56-.69,1.08-1.24,1.37-.03-1.06-.07-2.11-.1-3.17-.01-.33-.03-.68-.24-.93-.22-.25-.57-.33-.89-.39-1.98-.37-3.99-.74-5.99-.5-.3.04-.63.11-.8.35-.14.2-.14.47-.13.72.03,1.02.07,2.01-.01,2.99Z" style="fill: #37474f; stroke-width: 0px;"/>
            <path d="M409.4,256.71c1.04-.78,3.38-.79,4.66-.65,1.6.17,2.9.73,3.63,1.27.33.24.78.2,1.07-.08h0c.35-.34.31-.9-.08-1.19-.78-.57-2.19-1.38-4.09-1.51-3.14-.22-4.07.32-4.07.32,0,0-1.43.92-1.13,1.85Z" style="fill: #f5f5f5; stroke-width: 0px;"/>
            <path d="M407,259.58c1.31-.77,3.88-.66,5.16-.53,1.6.17,2.8.8,3.53,1.34.33.24.78.2,1.07-.08h0c.35-.34.31-.9-.08-1.19-.78-.57-2.28-1.5-4.17-1.63-3.14-.22-3.96.42-3.96.42,0,0-1.33.51-1.54,1.67Z" style="fill: #f5f5f5; stroke-width: 0px;"/>
            <path d="M415.84,251.54c-2.17-.22-3.09.02-3.95.33-.55.31-.92,1.19-.56,1.41.7-.39,1.96-.55,3.5-.48,1.04.05,2.34.47,3.4.93.27.12.59.29.87.44.38.21.85.06,1.03-.32h0c.15-.32.04-.71-.27-.9-.76-.46-2.26-1.23-4.02-1.41Z" style="fill: #f5f5f5; stroke-width: 0px;"/>
          </g>
          <g>
            <path d="M359.66,250.99c-.29.61-.21,1.76.14,2.49.35.73,4.16,2.88,9.29,2.53,5.14-.35,8.67-2.42,10.62-3.71,1.96-1.3,4-1.54,6.54-1.68,2.54-.15,5.88-1.41,6.44-2.6.56-1.19-.08-3.24-.08-3.24l-32.96,6.22Z" style="fill: #263238; stroke-width: 0px;"/>
            <path d="M380.31,235.19c-.44-.16-.89-.33-1.33-.49-.24-.09-.52-.18-.76-.09-.33.12-.46.51-.54.85-.18.69-.25,1.6-.56,2.23-.28.58-.96,1.11-1.44,1.51-1.25,1.05-2.68,1.88-4.11,2.65-1.68.9-3.32,1.6-5.06,2.38-1.77.8-4.11,1.28-5.5,2.21-2.02,1.36-2.28,4.77.02,6.12,1.98,1.16,7.19,2.42,12.66.87,2.98-.84,6.28-4.03,10.19-4.33,2.49-.19,7.19-.89,8.79-2.78.59-.84-.2-3.49-.85-5.78-.71-2.5-.98-6.41-1.81-6.19-.06.83-.78,1.31-1.21,2.01-.39.62-.6,1.32-.89,1.99-.29.67-.68,1.33-1.3,1.71s-1.51.41-2.01-.11c-.73-.76-.3-2.08-.83-2.99-.36-.62-1.08-.9-1.75-1.15-.57-.21-1.14-.42-1.71-.63Z" style="fill: #37474f; stroke-width: 0px;"/>
            <path d="M373.88,240.51s.36-.95,1.84-1.23c1.13-.21,3.13.62,4.37,1.65.51.42.44,1.21-.13,1.53h0c-.34.19-.76.14-1.06-.12-.81-.71-2.64-2-5.01-1.83Z" style="fill: #f5f5f5; stroke-width: 0px;"/>
            <path d="M370.37,242.47s.73-1.14,2.18-1.12c0,0,2.95.08,4.78,1.79.47.43.43,1.17-.12,1.48h0c-.33.18-.74.13-1.02-.12-.82-.74-2.47-2.28-5.81-2.03Z" style="fill: #f5f5f5; stroke-width: 0px;"/>
            <path d="M366.5,244.24s.81-1.03,2.26-1.01c0,0,2.75.1,4.58,1.81.47.43.43,1.17-.12,1.48h0c-.33.18-.74.13-1.02-.12-.82-.74-2.36-2.41-5.69-2.16Z" style="fill: #f5f5f5; stroke-width: 0px;"/>
          </g>
          <path d="M421.42,115.29c.65,19.61.6,67.05.6,67.05.21,2.44,1.2,7.45,2.01,17.22,1.06,12.7-1.24,40.64-1.24,40.64,0,0-4.66,2.38-10.23.06,0,0-6.13-39.82-8.08-52.38-1.71-11.04-5.06-35.83-5.06-35.83l-3.86,32.24s.92,7.63-.4,16.11c-.9,5.78-4.9,29.54-4.9,29.54,0,0-5.28,1.62-11.35-.43,0,0-.38-41.17-.48-46.52-.12-6.1,2.7-72.52,2.7-72.52l40.29,4.84Z" style="fill: #37474f; stroke-width: 0px;"/>
          <path d="M399.42,152.03l-2.9-16.07s-8.04-.7-12.48-5.19c0,0,.79,4.39,10.9,7.03l2.9,16.26-2.28,30.21,3.86-32.24Z" style="fill: #263238; stroke-width: 0px;"/>
        </g>
      </g>
      <g>
        <path d="M382.11,80.28c.87-6.28,1.69-14.72,11.43-15.1l12.56.6c3.09.8,15.11,2.23,15.11,2.23l.22,27.24s.77,19.64.53,30.15c-8.99,5.7-28.55,7.55-40.84-1.78-.36-8.68.13-37.12.99-43.34Z" style="fill: #fafafa; stroke-width: 0px;"/>
        <g>
          <g>
            <g>
              <path d="M383.73,32.86c-.96,1.7-1.55,3.64-1.61,5.73-.17,5.11,2.77,9.59,7.11,11.65l-2.27,1.55,22.58,2.02-.29,5.44s1.6-.37,2.41-1.82c.81-1.45,3.01-10.35,3.01-10.35,2.12-4.86,3.16-9.86,1.64-11.52-.72-.79-1.56-1.15-2.25-1.3l3.03-1.5c-.58-1.27-2.04-1.81-3.26-1.2-.26.13-.49.31-.68.51.07-.32.13-.64.15-.97.06-.99-.11-2.02-.68-2.83-.4-.58-.98-1.02-1.58-1.39-2.54-1.59-5.56-2.18-8.38-3.18-1.6-.57-3.15-1.27-4.73-1.9-1.06-.43-2.2-.83-3.32-.61-1.12.22-2.14,1.33-1.85,2.43-1.46-1.15-2.97-1.44-4.67-.71-1.4.61-2.48,2.11-2.28,3.68-1.02-.21-2.13-.19-3.06.3-.93.48-1.62,1.51-1.49,2.54.15,1.25,1.26,2.47,2.46,3.43Z" style="fill: #37474f; stroke-width: 0px;"/>
              <path d="M399.63,36.04c2.07-.25,4.14-.58,6.2-.91.19-.03.4-.05.54.07.09.08.14.2.18.31,1.35,3.95,1.32,8.25,2.39,12.29.1.36.33.99.77,1.04.8.09,1.35-.62,1.69-1.24.26-.46.51-.93.77-1.39.16-.29.35-.48.56-.71.97-.89,3.83-1.98,5.16,1.06,1.37,3.16-1.51,7.17-3.82,7.82-3.98,1.11-4.49-1.44-4.49-1.44l-.76,14.19c-3.52,3.68-15.09,2.4-12.8-.79l.15-4.32s-3.59.43-5.32.1c-2.88-.54-4.63-2.89-5.41-6.05-1.25-5.08-1.11-11.3-.13-19.02.12-.98.39-1.86.71-2.66,4.05,2.23,8.98,2.19,13.59,1.64Z" style="fill: #ffa8a7; stroke-width: 0px;"/>
            </g>
            <path d="M396.19,62.02s6.51-1.09,8.8-2.22c1.54-.75,2.83-2.11,3.22-2.99,0,0-.49,1.9-1.89,3.59-1.72,2.06-10.19,3.34-10.19,3.34l.06-1.72Z" style="fill: #f28f8f; stroke-width: 0px;"/>
          </g>
          <g>
            <path d="M397.12,46c-.03.8.57,1.46,1.34,1.48.77.02,1.41-.6,1.43-1.4.03-.8-.57-1.46-1.34-1.48-.77-.02-1.41.6-1.43,1.4Z" style="fill: #263238; stroke-width: 0px;"/>
            <path d="M399.05,40.22l2.91,1.25c.33-.83-.05-1.79-.86-2.13-.8-.35-1.72.05-2.05.88Z" style="fill: #263238; stroke-width: 0px;"/>
            <path d="M398.8,53.55l-4.56,1.54c.4,1.31,1.75,2.02,3.01,1.59,1.26-.43,1.95-1.83,1.55-3.14Z" style="fill: #b16668; stroke-width: 0px;"/>
            <path d="M397.25,56.69c.81-.27,1.37-.95,1.58-1.74-.25-.11-.53-.18-.83-.18-1.1,0-1.99.87-2.03,1.97.41.1.85.1,1.29-.05Z" style="fill: #f28f8f; stroke-width: 0px;"/>
            <path d="M385.56,41.39l2.9-1.11c-.28-.79-1.16-1.19-1.96-.88-.8.31-1.22,1.2-.93,1.99Z" style="fill: #263238; stroke-width: 0px;"/>
            <path d="M386.58,46c-.03.8.58,1.47,1.35,1.49.77.02,1.42-.61,1.44-1.41.03-.8-.58-1.47-1.35-1.49-.77-.02-1.42.61-1.44,1.41Z" style="fill: #263238; stroke-width: 0px;"/>
            <path d="M393.36,45.57l-.21,7.67-4.28-1.24,3.99-6.5c.19-.02.35,0,.5.06Z" style="fill: #f28f8f; stroke-width: 0px;"/>
          </g>
        </g>
        <path d="M380.59,88.09c.34-7.96.96-14.98,3.92-18.71,2.96-3.73,4.56-4.44,11.58-4.33l-.02.48c-.82.07-1.53.47-1.99,1.15-1.29,1.93-3.91,6.32-5.4,12-2.04,7.73-2.39,24.99-2.49,34.29-.1,9.3,0,16.79,0,16.79,0,0-4.7-1.1-6.16-3.45,0,0,.22-30.26.56-38.21Z" style="fill: #27debf; stroke-width: 0px;"/>
        <path d="M380.59,88.09c.34-7.96.96-14.98,3.92-18.71,2.96-3.73,4.56-4.44,11.58-4.33l-.02.48c-.82.07-1.53.47-1.99,1.15-1.29,1.93-3.91,6.32-5.4,12-2.04,7.73-2.39,24.99-2.49,34.29-.1,9.3,0,16.79,0,16.79,0,0-4.7-1.1-6.16-3.45,0,0,.22-30.26.56-38.21Z" style="opacity: .35; stroke-width: 0px;"/>
        <path d="M404.86,75.43c1-4.24,3.07-7.03,4-9.19l8.78,1.24c3.23,1.49,7.44,5.05,7.12,8.6l-2.3,26.06.64,24.67c-5.02,7.8-19.98,6.36-19.98,6.36,0,0-.43-11.1.06-32.55.27-12.02.4-19.79,1.68-25.2Z" style="fill: #27debf; stroke-width: 0px;"/>
        <path d="M404.86,75.43c1-4.24,3.07-7.03,4-9.19l8.78,1.24c3.23,1.49,7.44,5.05,7.12,8.6l-2.3,26.06.64,24.67c-5.02,7.8-19.98,6.36-19.98,6.36,0,0-.43-11.1.06-32.55.27-12.02.4-19.79,1.68-25.2Z" style="opacity: .35; stroke-width: 0px;"/>
        <path d="M404.45,77.52c.58-2.72.89-7.78,1.37-8.8.47-1.02,3.09-3.05,3.19-4.41l.05-.89s1.06.12,2.19,1.13c.82.73,3.25,2.42,3.25,2.42,0,0-.24,2.4-1.82,4.68-1.44,2.07-3.44,3.42-3.75,2.91-.29-.48-.26-1.29-.79-2.5-.66-1.51-.82-2.15-1.52-.66-.56,1.19-2.16,6.11-2.16,6.11Z" style="fill: #37474f; stroke-width: 0px;"/>
        <path d="M389.48,76.03c-.71,2.29,1.17-7.94,2.38-9.74s4.32-2.51,4.32-2.51l-.13,2.21s-1.01.12-1.98,1.38c-.78,1.01-3.61,5.52-4.59,8.66Z" style="fill: #37474f; stroke-width: 0px;"/>
        <g>
          <path d="M404.13,79.69c5.93.56,12.63,1.6,20.03,3.13l-.07.74c-7.42-1.53-14.13-2.59-20.05-3.14.03-.25.05-.49.08-.73Z" style="fill: #27debf; stroke-width: 0px;"/>
          <path d="M381.21,79.53c2.19-.26,4.68-.48,7.41-.62-.06.24-.12.49-.18.75-2.7.14-5.16.36-7.31.62.03-.25.06-.5.09-.75Z" style="fill: #27debf; stroke-width: 0px;"/>
        </g>
      </g>
      <path d="M441.14,102.61c-9.38-23.82-11.44-31.23-18.05-33.97-2.55-1.05-5.45-1.16-5.45-1.16-1.62,2.98-4.02,14.52,3.82,22.54,0,0,5.68,14.02,8.54,20.63-.09,6.65.39,12.21-1.64,21.21-.21.95-1.37,2.54-2.26,3.03-2.38,1.31-2.77,2.79-4.53,4.48-1.38,1.32-2.58,1.62-2.37,2.06.26.57,1.31,1.5,3.04,1.07.87-.22,2.3-1.15,3.68-1.93.23.27-1.99,3.82-4.31,6.41-3.42,3.81-4.25,6.56,2.59,6.83,4.29.17,8.92-3.35,11.83-11.9.58-1.69,1.17-4.14,1.78-6.51.44-1.02,3.58-17.06,4.24-21.96.84-6.2.62-6.95-.9-10.82Z" style="fill: #ffa8a7; stroke-width: 0px;"/>
      <g>
        <path d="M416.47,67.48s4.59-.78,8.3,1.46,5,4.2,9.47,14.62c4.48,10.43,5.35,12.43,5.35,12.43,0,0-2.02,5.94-13.94,6.62l-5.35-12.2s-4.45-5.53-4.85-12.37c-.4-6.83,1.01-10.57,1.01-10.57Z" style="fill: #27debf; stroke-width: 0px;"/>
        <path d="M416.47,67.48s4.59-.78,8.3,1.46,5,4.2,9.47,14.62c4.48,10.43,5.35,12.43,5.35,12.43,0,0-2.02,5.94-13.94,6.62l-5.35-12.2s-4.45-5.53-4.85-12.37c-.4-6.83,1.01-10.57,1.01-10.57Z" style="opacity: .45; stroke-width: 0px;"/>
      </g>
    </g>
  </g>
</svg>