<?xml version="1.0" encoding="UTF-8"?>
<svg xmlns="http://www.w3.org/2000/svg" viewBox="0 0 451.31 447.4">
  <g id="Floor">
    <path d="M384.69,224.26c-88.41-51.04-231.28-51.04-319.12,0-87.84,51.05-87.37,133.8,1.03,184.85,88.42,51.05,231.29,51.05,319.13,0,87.83-51.04,87.37-133.8-1.05-184.85Z" style="fill: #f5f5f5; stroke-width: 0px;"/>
  </g>
  <g id="Shadows">
    <path d="M261.98,356.56c-20.53-11.86-53.72-11.86-74.12,0-20.4,11.86-20.29,31.08.24,42.93,20.54,11.86,53.72,11.86,74.12,0,20.4-11.86,20.29-31.08-.24-42.93Z" style="fill: #e0e0e0; stroke-width: 0px;"/>
    <path d="M187.85,298.81l-8.99-5.2s-.03-.01-.05-.02l3.52-2.03c2.52-1.46,2.53-5.1,0-6.56l-11.3-6.54c-3.52-2.04-7.86-2.04-11.38,0l-113.8,65.65c-2.52,1.45-2.53,5.08-.02,6.55l11.28,6.62c3.53,2.07,7.9,2.09,11.45.04l10.8-6.24,8.91,5.23c2.81,1.65,6.28,1.66,9.1.03l90.48-52.29c2.01-1.16,2.01-4.06,0-5.22Z" style="fill: #e0e0e0; stroke-width: 0px;"/>
    <path d="M250.1,204.57c9.61,5.55,9.66,14.55.11,20.1-9.55,5.55-25.08,5.55-34.69,0-9.61-5.55-9.66-14.55-.11-20.1,9.55-5.55,25.08-5.55,34.69,0Z" style="fill: #e0e0e0; stroke-width: 0px;"/>
    <path d="M361.27,315.87l-47.52-27.44c-1.4-.81-1.4-2.83,0-3.64l41.88-24.34c.65-.38,1.46-.38,2.11,0l48.58,28.05c1.4.81,1.4,2.83,0,3.64l-40.83,23.73c-1.3.76-2.91.76-4.22,0Z" style="fill: #e0e0e0; stroke-width: 0px;"/>
  </g>
  <g id="Window">
    <g>
      <g style="isolation: isolate;">
        <polygon points="283.96 12.04 288.65 9.32 288.38 115.5 283.69 118.23 283.96 12.04" style="fill: #f0f0f0; stroke-width: 0px;"/>
        <polygon points="283.69 118.23 288.38 115.5 423.66 193.6 418.97 196.33 283.69 118.23" style="fill: #f5f5f5; stroke-width: 0px;"/>
        <path d="M278.58,2.73l146.07,84.34-.31,118.59-146.07-84.34.31-118.59ZM418.97,196.33l.27-106.18L283.96,12.04l-.27,106.18,135.28,78.1" style="fill: #e0e0e0; stroke-width: 0px;"/>
        <polygon points="278.58 2.73 283.27 0 429.35 84.34 424.66 87.06 278.58 2.73" style="fill: #f5f5f5; stroke-width: 0px;"/>
        <polygon points="424.66 87.06 429.35 84.34 429.04 202.92 424.35 205.65 424.66 87.06" style="fill: #f0f0f0; stroke-width: 0px;"/>
      </g>
      <g>
        <polygon points="348.9 49.54 348.62 155.72 354.02 158.84 354.3 52.65 348.9 49.54" style="fill: #e0e0e0; stroke-width: 0px;"/>
        <polygon points="354.3 52.65 354.3 52.65 354.02 158.84 358.71 156.11 358.97 55.35 354.3 52.65" style="fill: #f0f0f0; stroke-width: 0px;"/>
        <rect x="351.6" y="47.98" width="0" height="6.23" transform="translate(131.55 330.04) rotate(-60)" style="fill: #e0e0e0; stroke-width: 0px;"/>
      </g>
      <polygon points="354.28 57.01 354.3 52.65 348.9 49.54 348.89 53.89 354.28 57.01 354.28 57.01" style="opacity: .2; stroke-width: 0px;"/>
      <polygon points="354.28 57.01 358.07 54.83 354.3 52.65 354.3 52.65 354.28 57.01" style="opacity: .2; stroke-width: 0px;"/>
      <rect x="351.6" y="47.98" width="0" height="6.23" transform="translate(131.55 330.04) rotate(-60)" style="fill: #e0e0e0; stroke-width: 0px;"/>
    </g>
  </g>
  <g id="Table">
    <g>
      <g>
        <g>
          <path d="M235.02,138.13h-4.42c0,19.02.69,81.61.69,81.61h0c0,.23.15.45.45.62.6.34,1.56.34,2.15,0,.3-.17.44-.4.44-.62h0s.69-62.6.69-81.61Z" style="fill: #e6e6e6; stroke-width: 0px;"/>
          <path d="M226.1,129.55h-4.42c-3.8,19.67-6.27,81.61-6.27,81.61h0c0,.23.15.45.45.62.6.34,1.56.34,2.15,0,.3-.17.44-.4.44-.62h0s4.19-62.22,7.65-81.61Z" style="fill: #e6e6e6; stroke-width: 0px;"/>
          <path d="M239.52,129.55h4.42c3.8,19.67,6.27,81.61,6.27,81.61h0c0,.23-.15.45-.45.62-.6.34-1.56.34-2.15,0-.3-.17-.44-.4-.44-.62h0s-4.19-62.22-7.65-81.61Z" style="fill: #e6e6e6; stroke-width: 0px;"/>
        </g>
        <g>
          <path d="M256.6,128.99h-.47c-.9-2.59-3.08-5.06-6.56-7.07-9.32-5.38-24.39-5.38-33.65,0-3.45,2.01-5.61,4.48-6.48,7.07h-.44v2.68h0c.02,3.53,2.36,7.05,7.02,9.74,9.32,5.38,24.39,5.38,33.65,0,4.63-2.69,6.93-6.22,6.91-9.74h0v-2.68Z" style="fill: #f0f0f0; stroke-width: 0px;"/>
          <path d="M249.58,119.24c9.32,5.38,9.37,14.11.11,19.49-9.26,5.38-24.33,5.38-33.65,0-9.32-5.38-9.37-14.11-.11-19.49,9.26-5.38,24.33-5.38,33.65,0Z" style="fill: #f5f5f5; stroke-width: 0px;"/>
        </g>
      </g>
      <g>
        <g>
          <path d="M244.49,111.28h-23.35c0,7.67,3.58,14.17,4.68,16.1.04.09.1.17.15.26.02.03.04.07.05.09h0c.36.54.91,1.05,1.66,1.48,2.85,1.65,7.45,1.65,10.28,0,.95-.55,1.57-1.22,1.88-1.92,1.15-2.02,4.64-8.45,4.64-16.02Z" style="fill: #ebebeb; stroke-width: 0px;"/>
          <path d="M241.04,106.5c4.57,2.64,4.6,6.92.05,9.56-4.54,2.64-11.94,2.64-16.51,0-4.57-2.64-4.6-6.92-.05-9.56,4.54-2.64,11.94-2.64,16.51,0Z" style="fill: #f5f5f5; stroke-width: 0px;"/>
        </g>
        <g>
          <g>
            <path d="M231.55,108.27c-.03-4.98-1.19-9.94-3.37-14.42-.69-1.41-1.49-2.83-1.59-4.39-.11-1.56.75-3.33,2.29-3.64,1.21-.24,2.44.5,3.14,1.51.7,1.01.99,2.25,1.24,3.45,1.16,5.4,2.11,10.96,1.39,16.43-.08.59-.13,1.31-.38,1.85-.25.54-.74,1.01-1.33,1.07-.39.03-.79-.12-1.06-.41-.26-.29-.34-1.05-.34-1.44Z" style="fill: #e0e0e0; stroke-width: 0px;"/>
            <path d="M232.83,108.71s-.01,0-.02,0c-.11,0-.18-.1-.17-.21.59-6.99-.61-14.07-3.47-20.47-.04-.1,0-.21.1-.25.1-.04.21,0,.25.1,2.88,6.46,4.09,13.61,3.5,20.66,0,.1-.09.18-.19.18Z" style="fill: #fff; stroke-width: 0px;"/>
          </g>
          <g>
            <path d="M220.18,100.13c-1.03-.64-2.2-1.32-2.51-2.49-.28-1.04.28-2.2,1.19-2.79s2.07-.67,3.12-.42c1.05.25,2,.82,2.88,1.44,1.49,1.06,2.82,2.35,3.96,3.79,1.35,1.71,2.42,3.65,3.16,5.7.48,1.32.92,2.7,1.14,4.1.17,1.11.5,2.95-.64,3.67-.5.31-1.17.26-1.68-.03-.51-.29-.88-.78-1.14-1.31-.26-.53-.41-1.1-.6-1.66-.75-2.23-1.95-4.13-3.55-5.82-1.55-1.64-3.39-2.99-5.31-4.18Z" style="fill: #ebebeb; stroke-width: 0px;"/>
            <path d="M231.97,111.8h0c-.13.03-.25-.05-.28-.18-1.39-6.59-6.01-12.52-12.05-15.48-.12-.06-.16-.2-.11-.31.06-.12.2-.16.31-.11,6.17,3.02,10.88,9.08,12.3,15.8.03.13-.05.25-.18.28Z" style="fill: #fff; stroke-width: 0px;"/>
          </g>
          <g>
            <path d="M243.03,97.75c.84-.88,1.79-1.84,1.8-3.05,0-1.08-.83-2.05-1.85-2.4-1.02-.34-2.17-.13-3.12.38-.95.51-1.73,1.29-2.42,2.12-1.17,1.41-2.14,2.99-2.87,4.66-.87,2-1.42,4.14-1.62,6.31-.13,1.4-.21,2.84-.06,4.26.11,1.12.26,2.98,1.55,3.39.56.18,1.2-.04,1.62-.45s.65-.98.77-1.56c.11-.58.12-1.17.16-1.76.16-2.35.85-4.49,1.96-6.53,1.08-1.98,2.53-3.76,4.08-5.38Z" style="fill: #ebebeb; stroke-width: 0px;"/>
            <path d="M234.59,112.02h0c.13,0,.23-.12.22-.24-.32-6.72,2.64-13.63,7.74-18.03.1-.08.11-.23.02-.33-.08-.1-.23-.11-.33-.02-5.2,4.49-8.23,11.54-7.9,18.4,0,.13.12.23.24.22Z" style="fill: #fff; stroke-width: 0px;"/>
          </g>
        </g>
      </g>
    </g>
  </g>
  <g id="Side_table" data-name="Side table">
    <g>
      <polygon points="322.3 283.82 318.14 286.23 318.16 281.42 322.3 283.82" style="fill: #e6e6e6; stroke-width: 0px;"/>
      <polygon points="318.26 258.16 318.26 258.11 318.26 258.11 318.26 258.11 318.26 258.16" style="fill: #787878; stroke-width: 0px;"/>
      <rect x="338.48" y="246.43" height="46.7" style="fill: #cfcfcf; stroke-width: 0px;"/>
      <polygon points="318.32 234.76 358.77 258.11 358.77 258.11 318.32 234.76" style="fill: #cfcfcf; stroke-width: 0px;"/>
      <path d="M322.3,283.82l36.38,21v4.81s4.32,2.5,4.32,2.5l.16-56.51-49.18-28.39-.16,56.5,4.33,2.5v-4.81s4.16,2.39,4.16,2.39ZM358.72,276.44l-40.44-23.35.05-18.33,40.44,23.35h0l-.05,18.33ZM358.65,299.78l-40.44-23.35.05-18.27v-.05h0l40.44,23.35h0l-.05,18.32Z" style="fill: #ebebeb; stroke-width: 0px;"/>
      <polygon points="318.21 276.43 318.26 258.16 318.26 258.11 358.7 281.46 358.7 281.46 358.65 299.78 318.21 276.43" style="fill: #f5f5f5; stroke-width: 0px;"/>
      <polygon points="318.27 253.09 318.32 234.76 358.77 258.11 358.77 258.11 358.72 276.44 318.27 253.09" style="fill: #f5f5f5; stroke-width: 0px;"/>
      <polygon points="363.15 255.62 406.08 230.67 405.92 287.17 362.99 312.12 363.15 255.62" style="fill: #e6e6e6; stroke-width: 0px;"/>
      <polygon points="363.15 255.62 313.97 227.23 356.91 202.28 406.08 230.67 363.15 255.62" style="fill: #f5f5f5; stroke-width: 0px;"/>
    </g>
  </g>
  <g id="Plant">
    <path d="M371.52,222.87c-6.94-4.01-18.16-4.01-25.06,0-6.9,4.01-6.86,10.51.08,14.51,6.94,4.01,18.16,4.01,25.06,0,6.9-4.01,6.86-10.51-.08-14.51Z" style="fill: #e0e0e0; stroke-width: 0px;"/>
    <g>
      <g>
        <path d="M373.5,206.25l-13.98.41-13.98-.41c-.6,9.44,1.24,19.07,3.78,23.77h0c.45,1.03,1.37,2.01,2.77,2.82,4.13,2.38,10.79,2.38,14.89,0,1.42-.83,2.34-1.83,2.77-2.89,2.52-4.73,4.35-14.3,3.75-23.69Z" style="fill: #37474f; stroke-width: 0px;"/>
        <path d="M369.37,200.52c5.48,3.16,5.51,8.29.06,11.45-5.44,3.16-14.3,3.16-19.77,0-5.48-3.16-5.51-8.29-.06-11.45,5.44-3.16,14.3-3.16,19.77,0Z" style="fill: #455a64; stroke-width: 0px;"/>
        <path d="M367.2,201.78c4.27,2.47,4.3,6.47.05,8.94-4.25,2.47-11.15,2.47-15.43,0-4.27-2.47-4.3-6.47-.05-8.94,4.25-2.47,11.15-2.47,15.43,0Z" style="fill: #263238; stroke-width: 0px;"/>
      </g>
      <g>
        <path d="M358.35,206.64c2.35,1.92,5.49,2.64,8.2,1.87,2.7-.77,4.9-3,5.75-5.81-1.71-.74-3.06-1.84-4.49-3.11,2-.53,4.32-.44,6.35.22,1.1-1.68,1.38-4.1.48-6.06-2.41-1.06-5.18-1.26-7.58-.52,2.12-1.84,4.83-2.69,7.67-2.42.28-6.87-1.84-11.78-1.84-11.78-5.21.27-10.27,2.52-11.97,4.13-.29,2.09.58,5.54.58,5.54-2.38-1.32-2.42-3.58-2.42-3.58-3.26.82-4.66,2.44-5.17,3.69.24,2.04,2.12,5.46,3.09,6.26-3.06-.93-4.31-4.34-4.31-4.34-3.01,7.14-2.44,15.22,5.66,15.92Z" style="fill: #ba68c8; stroke-width: 0px;"/>
        <path d="M358.35,206.64c2.35,1.92,5.49,2.64,8.2,1.87,2.7-.77,4.9-3,5.75-5.81-1.71-.74-3.06-1.84-4.49-3.11,2-.53,4.32-.44,6.35.22,1.1-1.68,1.38-4.1.48-6.06-2.41-1.06-5.18-1.26-7.58-.52,2.12-1.84,4.83-2.69,7.67-2.42.28-6.87-1.84-11.78-1.84-11.78-5.21.27-10.27,2.52-11.97,4.13-.29,2.09.58,5.54.58,5.54-2.38-1.32-2.42-3.58-2.42-3.58-3.26.82-4.66,2.44-5.17,3.69.24,2.04,2.12,5.46,3.09,6.26-3.06-.93-4.31-4.34-4.31-4.34-3.01,7.14-2.44,15.22,5.66,15.92Z" style="opacity: .2; stroke-width: 0px;"/>
        <path d="M358.17,207.42s-.02,0-.02,0c-.17-.01-.29-.16-.28-.32.5-6.58,4.26-17.45,13.24-26.42.12-.12.31-.12.43,0,.12.12.12.31,0,.43-8.86,8.85-12.58,19.55-13.07,26.03-.01.16-.14.28-.3.28Z" style="fill: #f5f5f5; stroke-width: 0px;"/>
      </g>
      <g>
        <path d="M360.63,210.17c-2.08,1.7-4.99,2.33-7.59,1.65-2.6-.68-4.82-2.66-5.8-5.17,1.57-.66,2.78-1.63,4.05-2.76-1.92-.48-4.11-.41-6.01.18-1.15-1.5-1.58-3.66-.84-5.41,2.22-.93,4.84-1.09,7.15-.42-2.13-1.65-4.74-2.43-7.42-2.2-.7-6.15,1-10.51,1-10.51,4.97.3,9.89,2.36,11.6,3.81.4,1.86-.2,4.92-.2,4.92,2.16-1.15,2.06-3.16,2.06-3.16,3.11.75,4.52,2.21,5.07,3.31-.1,1.81-1.66,4.82-2.51,5.52,2.81-.8,3.76-3.81,3.76-3.81,3.24,6.32,3.19,13.45-4.33,14.05Z" style="fill: #ba68c8; stroke-width: 0px;"/>
        <path d="M360.83,210.89c-.15,0-.27-.11-.3-.26-.86-5.73-5.02-15.25-13.95-23.2-.12-.11-.13-.3-.02-.43.11-.12.3-.13.43-.02,9.04,8.06,13.27,17.73,14.14,23.56.02.16-.09.32-.25.34-.02,0-.03,0-.05,0Z" style="fill: #fff; stroke-width: 0px;"/>
      </g>
    </g>
  </g>
  <g id="Device">
    <g>
      <path d="M171.69,16.55h0c-.78-2.75-6.34-7.95-11.88-7.85-.2,0-1.19.1-1.55.3l-107.5,61.16c-1.83,1.04-3.24,2.6-4.13,4.43-.68,1.38-1.07,2.92-1.07,4.51v232.53c0,5.92,6.83,11.58,13.24,8.86.02,0,.03-.02.04-.03.14-.05.28-.09.41-.17l107.5-61.26c3.21-1.83,5.19-5.24,5.19-8.93V17.67c0-.41-.11-.79-.27-1.12Z" style="fill: #455a64; stroke-width: 0px;"/>
      <path d="M60.57,103.68c0-1.85.99-3.56,2.6-4.47l99.82-56.79c1.71-.97,3.84.26,3.84,2.23v187.5c0,1.84-1,3.56-2.6,4.47l-99.82,56.88c-1.71.98-3.84-.26-3.84-2.23V103.68Z" style="fill: #ba68c8; stroke-width: 0px;"/>
      <path d="M60.57,103.68c0-1.85.99-3.56,2.6-4.47l99.82-56.79c1.71-.97,3.84.26,3.84,2.23v187.5c0,1.84-1,3.56-2.6,4.47l-99.82,56.88c-1.71.98-3.84-.26-3.84-2.23V103.68Z" style="opacity: .2; stroke-width: 0px;"/>
      <path d="M45.57,79.1v232.53c0,5.92,6.83,11.58,13.24,8.86.02,0,.03-.02.04-.03-1.63.59-3.43-.58-3.43-2.4V85.53c0-2.06.63-4.02,1.74-5.68l-10.52-5.26c-.68,1.38-1.07,2.92-1.07,4.51Z" style="opacity: .3; stroke-width: 0px;"/>
      <path d="M159.82,8.7c-.2,0-1.19.1-1.55.3l-107.5,61.16c-1.83,1.04-3.24,2.6-4.13,4.43l10.52,5.26c.88-1.32,2.04-2.45,3.46-3.26L168.12,15.43c1.35-.77,2.95-.15,3.57,1.11h0c-.78-2.75-6.34-7.95-11.88-7.85Z" style="fill: #fff; opacity: .1; stroke-width: 0px;"/>
      <g>
        <g>
          <path d="M126.94,53.83c.76-.44,1.38-.1,1.38.77,0,.87-.62,1.94-1.37,2.38l-21.09,12.18c-.75.44-1.36.07-1.37-.8,0-.87.6-1.92,1.36-2.35l21.09-12.18Z" style="fill: #263238; stroke-width: 0px;"/>
          <path d="M100.44,69.14c.76-.44,1.36-.09,1.37.78,0,.87-.6,1.94-1.36,2.37-.75.44-1.38.08-1.38-.79,0-.87.62-1.93,1.37-2.36Z" style="fill: #263238; stroke-width: 0px;"/>
        </g>
        <path d="M113.94,52.06c1.51-.87,2.73-.18,2.73,1.56s-1.2,3.87-2.71,4.74c-1.51.87-2.76.16-2.76-1.57,0-1.73,1.24-3.85,2.75-4.72Z" style="fill: #263238; stroke-width: 0px;"/>
        <path d="M113.94,270.97c3.07-1.77,5.55-.36,5.56,3.17.01,3.53-2.45,7.87-5.53,9.65-3.07,1.77-5.62.32-5.63-3.21,0-3.53,2.52-7.83,5.59-9.61Z" style="fill: #263238; stroke-width: 0px;"/>
      </g>
    </g>
  </g>
  <g id="Screen">
    <g>
      <g>
        <g>
          <g>
            <path d="M191.37,56.44h0c-.71-2.49-5.76-7.22-10.78-7.12-.18,0-1.08.09-1.41.28l-97.58,55.51c-1.66.94-2.94,2.36-3.75,4.02-.62,1.26-.97,2.65-.97,4.09v211.07c0,5.38,6.2,10.51,12.02,8.04.01,0,.02-.02.04-.03.13-.05.25-.08.37-.15l97.58-55.61c2.91-1.66,4.71-4.76,4.71-8.11V57.45c0-.38-.1-.71-.25-1.02Z" style="fill: #ba68c8; stroke-width: 0px;"/>
            <path d="M76.89,113.22v211.07c0,5.38,6.2,10.51,12.02,8.04.01,0,.02-.02.04-.03-1.48.53-3.11-.53-3.11-2.18V119.05c0-1.87.58-3.65,1.58-5.15l-9.55-4.77c-.62,1.26-.97,2.65-.97,4.09Z" style="fill: #fff; opacity: .2; stroke-width: 0px;"/>
            <path d="M180.6,49.32c-.18,0-1.08.09-1.41.28l-97.58,55.51c-1.66.94-2.94,2.36-3.75,4.02l9.55,4.77c.79-1.2,1.85-2.22,3.14-2.96l97.58-55.52c1.23-.7,2.68-.14,3.24,1.01h0c-.71-2.49-5.76-7.22-10.78-7.12Z" style="fill: #fff; opacity: .4; stroke-width: 0px;"/>
          </g>
          <path d="M191.37,56.44h0c-.71-2.49-5.76-7.22-10.78-7.12-.18,0-1.08.09-1.41.28l-97.58,55.51c-1.66.94-2.94,2.36-3.75,4.02-.62,1.26-.97,2.65-.97,4.09v211.07c0,5.38,6.2,10.51,12.02,8.04.01,0,.02-.02.04-.03.13-.05.25-.08.37-.15l97.58-55.61c2.91-1.66,4.71-4.76,4.71-8.11V57.45c0-.38-.1-.71-.25-1.02Z" style="fill: #fff; opacity: .3; stroke-width: 0px;"/>
        </g>
        <g>
          <path d="M157.39,80.53c.93-.54,1.7-.11,1.7.97l.03,10.28c0,1.08-.76,2.39-1.69,2.93l-63.51,36.63c-.94.54-1.7.11-1.7-.97l-.03-10.29c0-1.08.75-2.38,1.69-2.93l63.51-36.63Z" style="fill: #ba68c8; stroke-width: 0px;"/>
          <g style="opacity: .7;">
            <path d="M157.39,80.53c.93-.54,1.7-.11,1.7.97l.03,10.28c0,1.08-.76,2.39-1.69,2.93l-63.51,36.63c-.94.54-1.7.11-1.7-.97l-.03-10.29c0-1.08.75-2.38,1.69-2.93l63.51-36.63Z" style="fill: #fff; stroke-width: 0px;"/>
          </g>
        </g>
        <g style="opacity: .5;">
          <path d="M182.71,69.64c2.18-1.26,3.95-.25,3.96,2.25,0,.92-.24,1.92-.65,2.88l.66,1.65-1.69.16c-.64.88-1.42,1.64-2.26,2.12-2.18,1.26-3.95.25-3.96-2.25,0-2.5,1.75-5.55,3.93-6.81Z" style="fill: #fff; stroke-width: 0px;"/>
        </g>
        <g style="opacity: .5;">
          <path d="M168.29,85.1c.5-.29.91-.06.91.51,0,.58-.4,1.27-.9,1.56-.5.29-.9.06-.9-.52,0-.57.4-1.27.9-1.55Z" style="fill: #fff; stroke-width: 0px;"/>
          <path d="M172.79,82.51c.5-.29.91-.06.91.51,0,.58-.4,1.27-.9,1.56-.5.29-.9.06-.9-.52,0-.57.4-1.27.9-1.55Z" style="fill: #fff; stroke-width: 0px;"/>
          <polygon points="174.67 74.44 174 81.39 167.08 85.38 166.37 79.23 174.67 74.44" style="fill: #fff; stroke-width: 0px;"/>
        </g>
      </g>
      <g>
        <g>
          <path d="M92.59,214.14c0-1.63.87-3.13,2.29-3.93l87.8-49.95c1.51-.86,3.38.23,3.38,1.97v42.34c0,1.62-.88,3.13-2.28,3.93l-87.81,50.03c-1.51.86-3.38-.23-3.38-1.96v-42.43Z" style="fill: #ba68c8; stroke-width: 0px;"/>
          <path d="M92.59,214.14c0-1.63.87-3.13,2.29-3.93l87.8-49.95c1.51-.86,3.38.23,3.38,1.97v42.34c0,1.62-.88,3.13-2.28,3.93l-87.81,50.03c-1.51.86-3.38-.23-3.38-1.96v-42.43Z" style="fill: #fff; opacity: .5; stroke-width: 0px;"/>
        </g>
        <polygon points="130.79 195.21 130.9 234.19 96.98 253.77 96.87 214.8 130.79 195.21" style="fill: #ba68c8; stroke-width: 0px;"/>
        <g style="opacity: .2;">
          <polygon points="130.79 195.21 130.9 234.19 96.98 253.77 96.87 214.8 130.79 195.21" style="fill: #fff; stroke-width: 0px;"/>
        </g>
        <g style="isolation: isolate; opacity: .6;">
          <polygon points="153.09 198.52 153.1 200.98 134.68 211.59 134.68 209.12 153.09 198.52" style="fill: #fff; stroke-width: 0px;"/>
          <polygon points="175.66 181.34 175.67 183.81 134.67 207.47 134.67 205.01 175.66 181.34" style="fill: #fff; stroke-width: 0px;"/>
          <polygon points="160.16 214.86 160.16 217.32 134.68 231.95 134.68 229.48 160.16 214.86" style="fill: #fff; stroke-width: 0px;"/>
          <polygon points="166.47 206.9 166.48 209.36 134.67 227.84 134.67 225.37 166.47 206.9" style="fill: #fff; stroke-width: 0px;"/>
          <polygon points="175.65 177.23 175.65 179.69 134.66 203.36 134.65 200.89 175.65 177.23" style="fill: #fff; stroke-width: 0px;"/>
          <polygon points="156.7 181.24 156.71 184.79 134.64 197.53 134.63 193.98 156.7 181.24" style="fill: #fff; stroke-width: 0px;"/>
        </g>
        <g>
          <g style="isolation: isolate;">
            <path d="M109.76,235.87c1.43.28,3.14-.06,4.99-1.13,1.84-1.06,3.56-2.7,4.97-4.62l.02,8.79-9.97,5.75-.02-8.8Z" style="fill: #e0e0e0; stroke-width: 0px;"/>
            <path d="M119.68,213.11c2.38.47,3.96,2.69,3.97,6.23.01,3.54-1.55,7.57-3.92,10.78-1.42,1.92-3.13,3.56-4.97,4.62-1.85,1.07-3.56,1.41-4.99,1.13-2.38-.47-3.95-2.69-3.96-6.23,0-3.54,1.54-7.56,3.91-10.77,1.42-1.93,3.13-3.56,4.98-4.63,1.84-1.06,3.56-1.41,4.98-1.13ZM114.74,232.25c3.73-2.15,6.74-7.37,6.73-11.65-.01-4.28-3.04-6.02-6.77-3.87s-6.75,7.38-6.73,11.67c.01,4.28,3.05,6.01,6.78,3.86" style="fill: #fff; stroke-width: 0px;"/>
          </g>
          <path d="M114.7,216.73c3.73-2.15,6.76-.42,6.77,3.87.01,4.28-3,9.5-6.73,11.65-3.73,2.15-6.77.43-6.78-3.86-.01-4.28,3.01-9.51,6.74-11.67Z" style="fill: #e0e0e0; stroke-width: 0px;"/>
          <path d="M109.69,210.07l9.97-5.75.02,8.8c-1.43-.28-3.14.07-4.98,1.13-1.85,1.07-3.56,2.7-4.98,4.63l-.02-8.8Z" style="fill: #e0e0e0; stroke-width: 0px;"/>
        </g>
      </g>
      <g>
        <path d="M92.59,157.89c0-1.63.87-3.13,2.29-3.93l87.8-49.95c1.51-.86,3.38.23,3.38,1.97v42.34c0,1.62-.88,3.13-2.28,3.93l-87.81,50.03c-1.51.86-3.38-.23-3.38-1.96v-42.43Z" style="fill: #ba68c8; stroke-width: 0px;"/>
        <path d="M92.59,157.89c0-1.63.87-3.13,2.29-3.93l87.8-49.95c1.51-.86,3.38.23,3.38,1.97v42.34c0,1.62-.88,3.13-2.28,3.93l-87.81,50.03c-1.51.86-3.38-.23-3.38-1.96v-42.43Z" style="opacity: .1; stroke-width: 0px;"/>
      </g>
      <g>
        <g>
          <path d="M92.59,269.1c0-1.63.87-3.13,2.29-3.93l87.8-49.95c1.51-.86,3.38.23,3.38,1.97v42.34c0,1.62-.88,3.13-2.28,3.93l-87.81,50.03c-1.51.86-3.38-.23-3.38-1.96v-42.43Z" style="fill: #ba68c8; stroke-width: 0px;"/>
          <path d="M92.59,269.1c0-1.63.87-3.13,2.29-3.93l87.8-49.95c1.51-.86,3.38.23,3.38,1.97v42.34c0,1.62-.88,3.13-2.28,3.93l-87.81,50.03c-1.51.86-3.38-.23-3.38-1.96v-42.43Z" style="fill: #fff; opacity: .5; stroke-width: 0px;"/>
        </g>
        <polygon points="130.79 250.17 130.9 289.14 96.98 308.73 96.87 269.75 130.79 250.17" style="fill: #ba68c8; stroke-width: 0px;"/>
        <g style="opacity: .2;">
          <polygon points="130.79 250.17 130.9 289.14 96.98 308.73 96.87 269.75 130.79 250.17" style="fill: #fff; stroke-width: 0px;"/>
        </g>
        <g style="isolation: isolate; opacity: .6;">
          <polygon points="153.09 253.48 153.1 255.94 134.68 266.54 134.68 264.08 153.09 253.48" style="fill: #fff; stroke-width: 0px;"/>
          <polygon points="175.66 236.3 175.67 238.76 134.67 262.43 134.67 259.97 175.66 236.3" style="fill: #fff; stroke-width: 0px;"/>
          <polygon points="160.16 269.82 160.16 272.28 134.68 286.9 134.68 284.44 160.16 269.82" style="fill: #fff; stroke-width: 0px;"/>
          <polygon points="166.47 261.85 166.48 264.32 134.67 282.79 134.67 280.33 166.47 261.85" style="fill: #fff; stroke-width: 0px;"/>
          <polygon points="175.65 232.18 175.65 234.64 134.66 258.31 134.65 255.85 175.65 232.18" style="fill: #fff; stroke-width: 0px;"/>
          <polygon points="156.7 236.2 156.71 239.74 134.64 252.48 134.63 248.94 156.7 236.2" style="fill: #fff; stroke-width: 0px;"/>
        </g>
        <g>
          <path d="M125.07,267.98c.73-.42,1.29,0,1.18.9l-1.93,15.87c-.18,1.45-1.18,3.01-2.36,3.69l-15.32,8.84c-1.18.68-2.18.27-2.37-.97l-2.02-13.59c-.11-.77.45-1.84,1.18-2.26l4.58-2.64v3.2s1.2-.69,1.2-.69v-3.2s10.07-5.82,10.07-5.82v3.2s1.21-.69,1.21-.69v-3.2s4.57-2.64,4.57-2.64Z" style="fill: #e0e0e0; stroke-width: 0px;"/>
          <path d="M114.23,265.49c3.44-1.98,6.25-.39,6.26,3.57v1.56s.01,3.2.01,3.2l-1.2.69v-3.2s-.01-1.56-.01-1.56c0-3.19-2.27-4.49-5.05-2.89-2.78,1.6-5.04,5.51-5.03,8.71v1.56s.01,3.2.01,3.2l-1.19.69v-3.2s-.01-1.56-.01-1.56c-.01-3.95,2.78-8.78,6.22-10.77Z" style="fill: #fff; stroke-width: 0px;"/>
        </g>
      </g>
      <g>
        <g>
          <path d="M100.41,164.88c0-1.85.99-3.56,2.6-4.47l99.82-56.79c1.71-.97,3.84.26,3.84,2.23v48.14c0,1.84-1,3.55-2.6,4.47l-99.82,56.88c-1.71.98-3.84-.26-3.84-2.23v-48.23Z" style="fill: #ba68c8; stroke-width: 0px;"/>
          <path d="M100.41,164.88c0-1.85.99-3.56,2.6-4.47l99.82-56.79c1.71-.97,3.84.26,3.84,2.23v48.14c0,1.84-1,3.55-2.6,4.47l-99.82,56.88c-1.71.98-3.84-.26-3.84-2.23v-48.23Z" style="fill: #fff; opacity: .6; stroke-width: 0px;"/>
        </g>
        <polygon points="143.82 143.36 143.95 187.67 105.39 209.93 105.27 165.62 143.82 143.36" style="fill: #ba68c8; stroke-width: 0px;"/>
        <g style="opacity: .2;">
          <polygon points="143.82 143.36 143.95 187.67 105.39 209.93 105.27 165.62 143.82 143.36" style="fill: #fff; stroke-width: 0px;"/>
        </g>
        <g>
          <path d="M136.37,157.22l.02,8.74c0,1.51-1.06,3.36-2.38,4.11-1.32.76-2.39.15-2.39-1.36l-.02-8.5c1.56-.98,3.27-2.06,4.77-2.99Z" style="fill: #e0e0e0; stroke-width: 0px;"/>
          <path d="M140.58,172.51c-.13,2.34-.61,4.94-1.19,7.21l-6.64,3.83c.19-1.9.37-3.81.55-5.7-2.44,3.35-5.13,6.5-7.96,9.27-1.22,1.19-2.51,2.16-3.79,2.9l-12.43,7.18c-.25-.18-.41-.51-.48-.92l12.46-7.2c1.16-.67,2.3-1.52,3.41-2.54,3.17-2.93,6.3-6.1,9.42-10.19l6.64-3.84Z" style="fill: #e0e0e0; stroke-width: 0px;"/>
          <path d="M138.22,156.1c.14,1.46.41,6.87.74,8.1.34,1.25.75,2.44,1.19,3.67.44,1.23.53,2.86.43,4.64l-6.64,3.84c-3.12,4.09-6.25,7.26-9.42,10.19-1.1,1.02-2.25,1.87-3.41,2.54l-12.46,7.2c-.2-1.14.2-2.93.94-4.15,1.02-1.67,2.38-2.75,3.66-3.88,1.7-1.48,3.35-3.15,4.93-4.99,4.22-4.87,9.1-11.76,10.73-21.4.77-.45,1.7-1.03,2.7-1.65l.02,8.5c0,1.51,1.07,2.12,2.39,1.36,1.31-.76,2.38-2.6,2.38-4.11l-.02-8.74c.67-.41,1.3-.8,1.84-1.12Z" style="fill: #fff; stroke-width: 0px;"/>
        </g>
        <g style="isolation: isolate; opacity: .6;">
          <polygon points="169.18 147.12 169.19 149.92 148.26 161.98 148.25 159.18 169.18 147.12" style="fill: #fff; stroke-width: 0px;"/>
          <polygon points="194.84 127.6 194.84 130.4 148.24 157.3 148.24 154.5 194.84 127.6" style="fill: #fff; stroke-width: 0px;"/>
          <polygon points="177.21 165.7 177.22 168.5 148.26 185.12 148.25 182.32 177.21 165.7" style="fill: #fff; stroke-width: 0px;"/>
          <polygon points="184.39 156.65 184.4 159.44 148.24 180.45 148.24 177.65 184.39 156.65" style="fill: #fff; stroke-width: 0px;"/>
          <polygon points="194.82 122.92 194.83 125.71 148.23 152.62 148.22 149.82 194.82 122.92" style="fill: #fff; stroke-width: 0px;"/>
          <polygon points="173.28 127.48 173.3 131.51 148.21 146 148.2 141.96 173.28 127.48" style="fill: #fff; stroke-width: 0px;"/>
        </g>
      </g>
      <g style="opacity: .8;">
        <g>
          <polygon points="107.6 130.59 104.84 142.03 102.25 143.52 100.59 138.49 98.9 145.46 96.3 146.96 93.5 138.73 95.99 137.29 97.73 142.57 99.53 135.25 101.76 133.96 103.5 139.3 105.28 131.92 107.6 130.59" style="fill: #fff; stroke-width: 0px;"/>
          <polygon points="110.9 128.68 110.92 138.52 108.5 139.92 108.47 130.08 110.9 128.68" style="fill: #fff; stroke-width: 0px;"/>
          <path d="M115.96,125.56c1.11-.64,2.26-1.01,3.11-.94l-.74,2.5c-.82-.03-1.63.18-2.37.61-1.02.59-1.39,1.19-1.38,1.69,0,1.51,4.86-2.42,4.87,1.21,0,1.71-1.24,3.9-3.78,5.37-1.41.81-2.8,1.18-3.61,1l.78-2.5c.76.14,1.84-.09,2.83-.66,1.01-.58,1.39-1.13,1.39-1.61,0-1.56-4.87,2.39-4.88-1.27,0-1.75,1.24-3.91,3.78-5.38Z" style="fill: #fff; stroke-width: 0px;"/>
          <polygon points="128.69 118.41 128.72 128.24 126.3 129.64 126.29 125.81 122.99 127.71 123 131.55 120.58 132.95 120.55 123.11 122.97 121.71 122.98 125.4 126.28 123.5 126.27 119.81 128.69 118.41" style="fill: #fff; stroke-width: 0px;"/>
          <polygon points="132.84 116.02 132.86 123.65 136.94 121.29 136.95 123.49 130.44 127.25 130.41 117.42 132.84 116.02" style="fill: #fff; stroke-width: 0px;"/>
          <polygon points="140.31 111.7 140.34 121.53 137.91 122.93 137.89 113.1 140.31 111.7" style="fill: #fff; stroke-width: 0px;"/>
          <path d="M145.37,108.58c1.12-.65,2.27-1.01,3.12-.94l-.74,2.5c-.83-.03-1.64.18-2.38.61-1.01.58-1.38,1.19-1.38,1.68,0,1.51,4.86-2.43,4.87,1.21,0,1.71-1.24,3.9-3.78,5.37-1.41.82-2.81,1.19-3.62,1l.79-2.51c.76.14,1.84-.09,2.83-.66,1-.58,1.39-1.13,1.39-1.61,0-1.56-4.88,2.39-4.89-1.27,0-1.75,1.24-3.91,3.78-5.38Z" style="fill: #fff; stroke-width: 0px;"/>
          <polygon points="156.7 102.23 156.71 104.44 154.08 105.96 154.11 113.59 151.69 114.98 151.67 107.35 149.03 108.87 149.03 106.67 156.7 102.23" style="fill: #fff; stroke-width: 0px;"/>
        </g>
        <polygon points="187.21 86.05 187.22 90.08 162.13 104.56 162.12 100.53 187.21 86.05" style="fill: #fff; stroke-width: 0px;"/>
        <polygon points="180.65 95.31 180.66 99.34 162.13 110.04 162.12 106.01 180.65 95.31" style="fill: #fff; stroke-width: 0px;"/>
      </g>
    </g>
  </g>
  <g id="Character">
    <g>
      <g>
        <path d="M240.8,395.48c-.74,1.55-3.09,2.99-5.66,3.41-2.57.42-5.19-.13-7.77-.49-3.84-.54-7.73-.63-11.59-.3-2.4.21-4.8.59-7.21.52-2.41-.08-4.89-.65-6.78-2.15-1.34-1.06-2.31-2.66-2.55-4.33-.31,2.18.8,4.45,2.55,5.83,1.89,1.5,4.37,2.07,6.78,2.15,2.41.08,4.81-.3,7.21-.52,3.86-.34,7.76-.24,11.59.3,2.58.36,5.38,1.1,7.95.68,2.57-.42,4.92-1.86,5.66-3.41l-.18-1.69Z" style="fill: #263238; stroke-width: 0px;"/>
        <g>
          <path d="M212.67,390.89c2.16,0,1.37-3.2,3.43-5.35-.84.05-1.68.06-2.52.06-1.85,2.66-2.37,5.29-.91,5.29Z" style="fill: #fff; stroke-width: 0px;"/>
          <path d="M217.16,390.72c2.18,0,1.6-3.82,3.74-6.04-.49.17-.98.31-1.48.43-.43.1-.86.17-1.29.23-1.91,2.7-2.45,5.38-.98,5.38Z" style="fill: #fff; stroke-width: 0px;"/>
          <path d="M238.57,383.41c-.15-.71-.55-1.33-1.13-1.76l-11.69-.29c-1.2,1.6-2.95,2.67-4.85,3.33-2.14,2.23-1.57,6.04-3.74,6.04-1.48,0-.93-2.69.98-5.38-.68.1-1.36.16-2.04.2-2.06,2.14-1.26,5.35-3.43,5.35-1.46,0-.94-2.62.91-5.29-.55,0-1.09,0-1.64-.02-.5,0-.99-.04-1.5-.08-4.3,3.4-4.66,7.09-4.11,12.87.74.13,1.49.21,2.24.23,2.41.08,4.81-.3,7.21-.52,3.86-.34,7.76-.24,11.59.3,2.58.36,5.2.92,7.77.49,2.57-.42,4.92-1.86,5.66-3.41l-2.24-12.07Z" style="fill: #455a64; stroke-width: 0px;"/>
          <path d="M210.44,385.51c-1.97-.16-3.95-.46-5.84,0-2.37.58-4.64,2.22-5.26,4.58-.18.68-.19,1.37-.09,2.06.24,1.67,1.2,3.26,2.55,4.33,1.31,1.03,2.89,1.62,4.54,1.91-.56-5.79-.19-9.47,4.11-12.87Z" style="fill: #fff; stroke-width: 0px;"/>
        </g>
        <path d="M225.42,378.03v5.63c0,1.28,1.04,2.31,2.31,2.31h5.89c2.05,0,3.73-1.62,3.79-3.67l.14-4.27h-12.14Z" style="fill: #9c5a5a; stroke-width: 0px;"/>
      </g>
      <g>
        <path d="M264.37,375.52c-.7,1.41-1.98,2.36-3.55,2.48-1.53.12-3.19-.28-4.49-1.1-2.03-1.29-2.82-3.31-4.2-5.14-1.38-1.82-3.15-3.31-4.89-4.77-1.84-1.55-3.69-3.22-4.67-5.42-.28-.62-.46-1.3-.55-1.99-.18,1.27.02,2.63.55,3.81.99,2.19,2.83,3.87,4.67,5.42,1.74,1.47,3.51,2.95,4.89,4.77,1.38,1.83,2.17,3.85,4.2,5.14,1.3.83,2.95,1.23,4.49,1.1,1.57-.13,2.84-1.08,3.55-2.48.24-.48.25-1.92.21-3.14-.03.58-.09,1.07-.21,1.31Z" style="fill: #263238; stroke-width: 0px;"/>
        <g>
          <path d="M251.09,363.16c-.17.29-.35.63-.28.96.07.33.32.62.64.73.45.16.95-.04,1.31-.34.36-.31.62-.71.91-1.09.78-.99,1.83-1.76,3.01-2.19.58-.21,1.18-.35,1.8-.4-.49-.44-.97-.89-1.46-1.33-.92.06-1.83.26-2.66.65-1.36.64-2.51,1.7-3.26,3.01Z" style="fill: #fff; stroke-width: 0px;"/>
          <path d="M251.4,358.51c-1.36.64-2.51,1.7-3.26,3.01-.17.29-.35.63-.28.96.07.33.32.62.64.73.45.16.95-.03,1.31-.34.36-.3.62-.71.91-1.09.78-.99,1.83-1.76,3.01-2.19.94-.35,1.96-.47,2.95-.39-.48-.44-.96-.88-1.45-1.32-1.31-.13-2.65.08-3.84.63Z" style="fill: #fff; stroke-width: 0px;"/>
          <path d="M254.32,357.05c-1.39-1.24-2.86-2.41-4.59-3.07-2.09-.8-4.69-.68-6.31.87-1.24,1.19-1.63,3-1.4,4.73.09.69.27,1.36.55,1.99.37.83.87,1.59,1.45,2.3.56-5.03,4.93-7.39,10.29-6.82Z" style="fill: #fff; stroke-width: 0px;"/>
          <path d="M264.49,370.58c-.13-1.8-.23-3.36-1.14-4.92l-2.84-2.98c-.68-.62-1.35-1.23-2.03-1.85-.61.05-1.22.18-1.8.4-1.18.44-2.23,1.2-3.01,2.19-.29.37-.55.78-.91,1.09-.36.3-.87.5-1.31.34-.32-.11-.57-.4-.64-.73-.07-.33.12-.67.28-.96.74-1.3,1.9-2.37,3.26-3.01.83-.39,1.74-.6,2.66-.65-.11-.1-.22-.2-.33-.3-1-.08-2.01.04-2.95.39-1.18.44-2.23,1.2-3.01,2.19-.29.37-.55.78-.91,1.09-.36.31-.87.5-1.31.34-.32-.11-.57-.4-.64-.73-.07-.33.12-.67.28-.96.74-1.3,1.9-2.37,3.26-3.01,1.19-.56,2.53-.76,3.84-.63-.02-.02-.04-.03-.05-.05-.29-.26-.58-.52-.87-.78-5.36-.57-9.73,1.78-10.29,6.82.94,1.15,2.08,2.16,3.22,3.12,1.74,1.47,3.51,2.95,4.89,4.77,1.38,1.83,2.17,3.85,4.2,5.14,1.3.83,2.95,1.23,4.49,1.1,1.57-.13,2.84-1.08,3.55-2.48.12-.24.18-.73.21-1.31.06-1.32-.06-3.11-.1-3.62Z" style="fill: #455a64; stroke-width: 0px;"/>
        </g>
        <path d="M254.23,361.68l.33,6.04c3.81,2.2,7.82,1,9.16-.39l.25-5.65h-9.75Z" style="fill: #9c5a5a; stroke-width: 0px;"/>
      </g>
      <path d="M261.75,231.05c-.32-.65-.53-1.35-.58-2.08l-.33-5.19-36.96,2.37c-.49,2.59-.98,5.77-1.47,9.36,13.05,3.47,27.39,1.82,39.33-4.47Z" style="fill: #9c5a5a; stroke-width: 0px;"/>
      <path d="M261.03,210.12l7.87,15.21-7.15,11.98,7.91,12.51,11.94-18.54c1.64-2.54,2.07-5.66,1.22-8.56-3.78-12.96-7.76-21.11-7.76-21.11l-14.03,8.52Z" style="fill: #9c5a5a; stroke-width: 0px;"/>
      <path d="M254.77,180.74c9.06-1.69,14.24,1.33,21.9,21.83-3.13,7.01-16.39,9.6-16.39,9.6l-5.5-31.43Z" style="fill: #ba68c8; stroke-width: 0px;"/>
      <path d="M254.77,180.74c9.06-1.69,14.24,1.33,21.9,21.83-3.13,7.01-16.39,9.6-16.39,9.6l-5.5-31.43Z" style="opacity: .3; stroke-width: 0px;"/>
      <path d="M237.8,183.15l-9.89,1.95c-2.19,4-4.41,7.76-6.6,11.76-1.65,3.01-3.34,6.22-3.22,9.65.13,3.65,2.55,7.12,5.92,8.52l-1.14,13.5c15.53,4.75,34.52.58,38.69-3.02,1.23-5.66,2.31-11.68,3.54-17.34.8-3.68,1.6-7.38,1.67-11.14.08-3.76-.62-7.63-2.61-10.82-.02-.03-.04-.06-.06-.1-2.56-4.02-7.43-5.96-12.14-5.21l-14.16,2.25Z" style="fill: #ba68c8; stroke-width: 0px;"/>
      <path d="M262.32,231.99c-.23-.3-.41-.62-.57-.95-11.94,6.29-26.28,7.94-39.33,4.47-2.79,20.73-5.18,55.85-3.71,79.01,1.22,26.97,6.18,65.15,6.18,65.15,6.47,1.94,11.33.75,13.16-.65,2.16-26.75,6.9-45.09,3.24-62.77,2.44-12.37,4.03-27.9,4.03-27.9l1.87,27.32,6.33,48.03c6.18,3.16,11.36-.58,11.36-.58,4.6-27.47,6.33-46.08,2.3-59.71,6.14-45.07,6.46-56.61-4.85-71.43Z" style="fill: #455a64; stroke-width: 0px;"/>
      <path d="M248.03,282.95l3.39-14.23c3.95-.65,10.14-3.24,13.39-8.66-4.65,3.6-10.53,5.79-16.41,5.79l-3.09,22.51.66,9.62.27-3.5c.29-3.88.9-7.73,1.8-11.52Z" style="opacity: .3; stroke-width: 0px;"/>
      <g>
        <path d="M164.23,166.86l9.96,25.76c1.3,3.36,4.27,5.8,7.82,6.42l17.02,2.97c1.84-1.98,3.17-4.44,3.75-7.08.65-2.95.37-6.08-.74-8.89-4.76-.09-9.91-.54-15.33-1.69,0,0-10.76-13.07-15.25-19.83l3.21-10.61c.29-.96.17-2.01-.33-2.88l-1.72-2.99c-.44-.77-1.15-1.35-1.99-1.64l-2.48-.84c-1.13-.39-2.37-.29-3.43.26l-3.78,1.98c-.49.25-.79.76-.78,1.31h0c0,.54.31,1.02.79,1.27l1.42.73,1.95,3.32c-4.67,6.73-.08,12.43-.08,12.43Z" style="fill: #9c5a5a; stroke-width: 0px;"/>
        <path d="M226.37,184.92c-6.12.29-15.31,1.3-24.33,1.13,1.11,2.81,1.39,5.94.74,8.89-.58,2.64-1.91,5.1-3.75,7.08l21.25,3.71c4.56.8,9.16-2.24,10.26-6.73.66-2.69,1.37-4.95,1.78-7.57.55-3.55-2.36-6.68-5.94-6.51Z" style="fill: #ba68c8; stroke-width: 0px;"/>
        <path d="M226.37,184.92c-6.12.29-15.31,1.3-24.33,1.13,1.11,2.81,1.39,5.94.74,8.89-.58,2.64-1.91,5.1-3.75,7.08l21.25,3.71c4.56.8,9.16-2.24,10.26-6.73.66-2.69,1.37-4.95,1.78-7.57.55-3.55-2.36-6.68-5.94-6.51Z" style="opacity: .3; stroke-width: 0px;"/>
      </g>
      <g>
        <path d="M225.76,156.57c-1.37-2.83-2.26-5.98-1.94-9.11.32-3.13,2-6.22,4.78-7.7s6.62-.99,8.55,1.5c5.1-2.54,11.49-2.58,16.23.58,4.74,3.16,7.6,8.95,7.23,14.63-.21,3.27-1.41,6.49-1.04,9.75.22,1.92.97,3.86.47,5.72-.42,1.56-1.68,2.78-3.11,3.52-1.43.74-4.77.55-6.35.88-4.82,4.38-10.88,2.74-14.73-1.17-3.85-3.91-10.09-18.6-10.09-18.6Z" style="fill: #37474f; stroke-width: 0px;"/>
        <polygon points="224.75 160.92 221.74 166.15 225.04 167.37 224.75 160.92" style="fill: #804040; stroke-width: 0px;"/>
        <path d="M224.41,158.59c.48-4.59,1.83-8.92,4.82-11.12-1.04,6.02,1.04,12.9,3.44,16.43.29-1.51,1.09-2.9,2.22-3.94,1.14-1.04,2.86-1.52,4.28-.91,1,.43,1.74,1.33,2.15,2.34.79,1.97.34,4.38-1.12,5.92-1.46,1.54-3.84,2.13-5.85,1.44.68,4.1,4.18,7.44,8.23,8.34,2.66.59,5.44.24,7.98-.76l1.24,6.19c-5.04,5.37-13.64,1.76-13.64,1.76l-1.13-6.09c-9.91.59-10.83.42-11.92-5.04-.6-3-1.29-8.98-.7-14.58Z" style="fill: #9c5a5a; stroke-width: 0px;"/>
        <path d="M246.35,151.92c1.41-3.94,4.23-7.45,7.89-9.42,4.21,3.26,6.72,8.64,6.37,13.97-.21,3.27-1.41,6.49-1.04,9.75.22,1.92.97,3.86.47,5.72-.42,1.56-1.68,2.78-3.11,3.52-1.43.74-4.77.55-6.35.88-.21.19-.42.35-.63.52-1.63-3.22-3.04-6.56-3.92-10.06-1.22-4.88-1.36-10.14.34-14.88Z" style="opacity: .3; stroke-width: 0px;"/>
        <path d="M249.1,148.48c1.54-5.09,6.61-8.9,11.93-8.96,5.32-.07,10.48,3.61,12.15,8.67,2.99,9.05-4.67,18.67-2.99,28.05.6,3.38,2.39,6.46,3,9.83.71,3.89-.26,8.06-2.61,11.24-2.35,3.18-6.04,5.34-9.97,5.82,2.15-2.37,2.19-6.03.97-8.99-1.23-2.96-3.41-5.39-5.3-7.98-7.6-10.43-10.92-25.32-7.18-37.67Z" style="fill: #37474f; stroke-width: 0px;"/>
      </g>
    </g>
  </g>
</svg>